<svg width="180" height="52" viewBox="0 0 180 52" fill="none" xmlns="http://www.w3.org/2000/svg">
    <path d="M173.095 52H6.6575C2.99754 52 0 49.0734 0 45.5V6.5C0 2.92663 2.99754 2.74817e-06 6.6575 2.74817e-06H173.095C176.755 2.74817e-06 179.753 2.92663 179.753 6.5V45.5C179.753 49.0734 176.755 52 173.095 52Z" fill="black"/>
    <path d="M40.1705 24.6371C40.1318 20.4472 43.6891 18.4088 43.8518 18.3139C41.8371 15.45 38.7145 15.0587 37.6171 15.0275C34.9945 14.7584 32.4505 16.5576 31.1145 16.5576C29.7518 16.5576 27.6945 15.0535 25.4771 15.0977C22.6238 15.1406 19.9545 16.7513 18.4905 19.2525C15.4691 24.3524 17.7225 31.8469 20.6171 35.9692C22.0651 37.9881 23.7571 40.2423 25.9718 40.163C28.1385 40.0759 28.9478 38.8162 31.5625 38.8162C34.1531 38.8162 34.9131 40.163 37.1718 40.1123C39.4971 40.0759 40.9611 38.0843 42.3585 36.0472C44.0318 33.7332 44.7038 31.4543 44.7305 31.3373C44.6758 31.3191 40.2145 29.659 40.1705 24.6371Z" fill="white"/>
    <path d="M35.9038 12.3157C37.0691 10.8948 37.8665 8.9617 37.6451 7C35.9585 7.0728 33.8491 8.1375 32.6345 9.5272C31.5598 10.7518 30.5998 12.759 30.8478 14.6466C32.7425 14.7844 34.6878 13.7145 35.9038 12.3157Z" fill="white"/>
    <path d="M71.5264 39.8731H68.4984L66.8397 34.7914H61.0744L59.4944 39.8731H56.5464L62.2584 22.5727H65.7864L71.5264 39.8731ZM66.3397 32.6594L64.8397 28.1419C64.681 27.6804 64.3837 26.5936 63.945 24.8828H63.8917C63.717 25.6186 63.4357 26.7054 63.049 28.1419L61.5757 32.6594H66.3397Z" fill="white"/>
    <path d="M86.2157 33.4823C86.2157 35.6039 85.6277 37.2809 84.4517 38.512C83.3984 39.6079 82.0904 40.1552 80.529 40.1552C78.8437 40.1552 77.633 39.565 76.8957 38.3846H76.8424V44.9561H73.9997V31.505C73.9997 30.1712 73.9637 28.8023 73.8944 27.3983H76.3944L76.553 29.3756H76.6064C77.5544 27.8858 78.993 27.1422 80.9237 27.1422C82.433 27.1422 83.693 27.7233 84.701 28.8868C85.7117 30.0516 86.2157 31.583 86.2157 33.4823ZM83.3197 33.5837C83.3197 32.3695 83.0397 31.3685 82.477 30.5807C81.8624 29.7591 81.037 29.3483 80.0024 29.3483C79.301 29.3483 78.6637 29.5771 78.0944 30.0282C77.5237 30.4832 77.1504 31.0773 76.9757 31.8131C76.8877 32.1563 76.8437 32.4371 76.8437 32.6581V34.7381C76.8437 35.6455 77.129 36.4112 77.6997 37.0365C78.2704 37.6618 79.0117 37.9738 79.9237 37.9738C80.9944 37.9738 81.8277 37.5708 82.4237 36.7674C83.021 35.9627 83.3197 34.9019 83.3197 33.5837Z" fill="white"/>
    <path d="M100.932 33.4823C100.932 35.6039 100.344 37.2809 99.1664 38.512C98.1144 39.6079 96.8064 40.1552 95.2451 40.1552C93.5597 40.1552 92.3491 39.565 91.6131 38.3846H91.5597V44.9561H88.7171V31.505C88.7171 30.1712 88.6811 28.8023 88.6117 27.3983H91.1117L91.2704 29.3756H91.3237C92.2704 27.8858 93.7091 27.1422 95.6411 27.1422C97.1491 27.1422 98.4091 27.7233 99.4197 28.8868C100.426 30.0516 100.932 31.583 100.932 33.4823ZM98.0357 33.5837C98.0357 32.3695 97.7544 31.3685 97.1917 30.5807C96.577 29.7591 95.7544 29.3483 94.7184 29.3483C94.0157 29.3483 93.3797 29.5771 92.8091 30.0282C92.2384 30.4832 91.8664 31.0773 91.6917 31.8131C91.605 32.1563 91.5597 32.4371 91.5597 32.6581V34.7381C91.5597 35.6455 91.8451 36.4112 92.4131 37.0365C92.9837 37.6605 93.7251 37.9738 94.6397 37.9738C95.7104 37.9738 96.5437 37.5708 97.1397 36.7674C97.7371 35.9627 98.0357 34.9019 98.0357 33.5837Z" fill="white"/>
    <path d="M117.385 35.0215C117.385 36.4931 116.861 37.6904 115.809 38.6147C114.653 39.6248 113.044 40.1292 110.976 40.1292C109.066 40.1292 107.536 39.7704 106.377 39.0515L107.036 36.7414C108.284 37.4772 109.653 37.8464 111.145 37.8464C112.216 37.8464 113.049 37.6098 113.648 37.1392C114.244 36.6686 114.541 36.0368 114.541 35.249C114.541 34.547 114.296 33.9555 113.804 33.4758C113.314 32.9961 112.497 32.5502 111.356 32.1381C108.249 31.0084 106.697 29.3535 106.697 27.1773C106.697 25.7551 107.241 24.589 108.33 23.6816C109.416 22.7729 110.864 22.3192 112.674 22.3192C114.289 22.3192 115.63 22.5935 116.701 23.1408L115.99 25.4002C114.99 24.8698 113.86 24.6046 112.594 24.6046C111.594 24.6046 110.813 24.8451 110.253 25.3235C109.78 25.7512 109.542 26.2725 109.542 26.89C109.542 27.5738 109.813 28.1393 110.357 28.5839C110.83 28.9947 111.69 29.4393 112.938 29.919C114.465 30.5183 115.586 31.219 116.308 32.0224C117.026 32.8232 117.385 33.8255 117.385 35.0215Z" fill="white"/>
    <path d="M126.784 29.4783H123.65V35.535C123.65 37.0755 124.202 37.8451 125.309 37.8451C125.817 37.8451 126.238 37.8022 126.572 37.7164L126.65 39.8211C126.09 40.0252 125.353 40.1279 124.44 40.1279C123.317 40.1279 122.44 39.7938 121.806 39.1269C121.176 38.4587 120.858 37.3381 120.858 35.7638V29.4757H118.992V27.3957H120.858V25.1116L123.65 24.29V27.3957H126.784V29.4783Z" fill="white"/>
    <path d="M140.921 33.533C140.921 35.4505 140.358 37.0248 139.236 38.2559C138.058 39.5234 136.496 40.1552 134.548 40.1552C132.67 40.1552 131.176 39.5481 130.061 38.3339C128.946 37.1197 128.389 35.587 128.389 33.7397C128.389 31.8066 128.962 30.2232 130.113 28.9921C131.261 27.7597 132.81 27.1435 134.758 27.1435C136.636 27.1435 138.146 27.7506 139.286 28.9661C140.377 30.1452 140.921 31.6675 140.921 33.533ZM137.972 33.6227C137.972 32.4722 137.72 31.4855 137.209 30.6626C136.613 29.6668 135.761 29.1702 134.657 29.1702C133.514 29.1702 132.646 29.6681 132.05 30.6626C131.54 31.4868 131.288 32.4891 131.288 33.6747C131.288 34.8252 131.54 35.8119 132.05 36.6335C132.665 37.6293 133.524 38.1259 134.632 38.1259C135.717 38.1259 136.569 37.6189 137.184 36.6075C137.708 35.769 137.972 34.7719 137.972 33.6227Z" fill="white"/>
    <path d="M150.161 29.8358C149.88 29.7851 149.58 29.7591 149.265 29.7591C148.265 29.7591 147.492 30.127 146.948 30.8641C146.474 31.5141 146.237 32.3357 146.237 33.3276V39.8731H143.396L143.422 31.3269C143.422 29.8891 143.386 28.58 143.316 27.3996H145.792L145.896 29.7864H145.974C146.274 28.9661 146.748 28.3057 147.396 27.8104C148.029 27.3645 148.713 27.1422 149.45 27.1422C149.713 27.1422 149.95 27.1604 150.161 27.1929V29.8358Z" fill="white"/>
    <path d="M162.874 33.0455C162.874 33.5421 162.841 33.9607 162.77 34.3026H154.242C154.276 35.535 154.688 36.4775 155.48 37.1275C156.198 37.7086 157.128 37.9998 158.269 37.9998C159.532 37.9998 160.684 37.8035 161.72 37.4096L162.165 39.3336C160.954 39.8484 159.525 40.1045 157.876 40.1045C155.892 40.1045 154.334 39.5351 153.201 38.3976C152.07 37.2601 151.504 35.7326 151.504 33.8164C151.504 31.9353 152.03 30.3688 153.085 29.1195C154.189 27.7857 155.681 27.1188 157.558 27.1188C159.402 27.1188 160.798 27.7857 161.746 29.1195C162.497 30.179 162.874 31.4894 162.874 33.0455ZM160.164 32.3266C160.182 31.505 159.997 30.7952 159.612 30.1959C159.12 29.425 158.364 29.0402 157.346 29.0402C156.417 29.0402 155.661 29.4159 155.084 30.1699C154.61 30.7692 154.329 31.4881 154.242 32.3253H160.164V32.3266Z" fill="white"/>
    <path d="M62.3023 15.9121C61.0777 15.9121 60.0545 15.4812 59.2327 14.6193C58.4109 13.7491 58 12.6801 58 11.4121C58 10.1524 58.4109 9.08752 59.2327 8.21736C60.0545 7.34719 61.0978 6.91211 62.3627 6.91211C63.0959 6.91211 63.7163 7.02813 64.2239 7.26018C64.7395 7.49222 65.2229 7.82786 65.6741 8.26708L64.7194 9.3983C63.962 8.6773 63.1725 8.31681 62.3507 8.31681C61.545 8.31681 60.8763 8.61515 60.3445 9.21183C59.8208 9.80852 59.559 10.5419 59.559 11.4121C59.559 12.274 59.8249 13.0074 60.3566 13.6124C60.8884 14.2091 61.553 14.5074 62.3507 14.5074C62.8341 14.5074 63.2611 14.4163 63.6317 14.2339C64.0023 14.0433 64.385 13.7574 64.7798 13.3762L65.7345 14.3707C65.2592 14.8845 64.7556 15.2698 64.2239 15.5268C63.6921 15.7837 63.0516 15.9121 62.3023 15.9121Z" fill="white"/>
    <path d="M67.1277 15.7629V9.1994H68.5779V12.3444L71.3575 9.1994H73.0736L70.5961 11.9591L73.2791 15.7629H71.5509L69.6172 13.053L68.5779 14.1842V15.7629H67.1277Z" fill="white"/>
    <path d="M79.6452 15.7629H78.195V14.9549C77.6793 15.5848 76.9905 15.8997 76.1284 15.8997C75.4919 15.8997 74.9521 15.7215 74.509 15.3651C74.0739 15.0005 73.8564 14.495 73.8564 13.8486C73.8564 13.1442 74.0941 12.6096 74.5694 12.245C75.0448 11.8803 75.6692 11.698 76.4426 11.698C77.063 11.698 77.6511 11.7892 78.2071 11.9715V11.8472C78.2071 11.3914 78.0701 11.0433 77.7962 10.803C77.5303 10.5627 77.1436 10.4425 76.636 10.4425C76.0559 10.4425 75.4476 10.5792 74.8111 10.8527L74.4123 9.64692C75.2019 9.28228 76.0116 9.09995 76.8414 9.09995C77.768 9.09995 78.4649 9.34029 78.9322 9.82095C79.4075 10.3016 79.6452 10.9853 79.6452 11.8721V15.7629ZM78.2312 13.3886V13.0157C77.7962 12.8417 77.3087 12.7547 76.7689 12.7547C76.3097 12.7547 75.9512 12.8458 75.6934 13.0281C75.4355 13.2105 75.3066 13.4674 75.3066 13.7989C75.3066 14.0972 75.4234 14.3334 75.6571 14.5074C75.8907 14.6814 76.1848 14.7685 76.5393 14.7685C77.0308 14.7685 77.4336 14.64 77.7478 14.3831C78.0701 14.1262 78.2312 13.7947 78.2312 13.3886Z" fill="white"/>
    <path d="M85.2638 15.7629V13.314C84.6353 13.6455 84.0029 13.8113 83.3664 13.8113C82.7138 13.8113 82.1861 13.6331 81.7832 13.2768C81.3885 12.9121 81.1911 12.4024 81.1911 11.7477V9.1994H82.6534V11.3872C82.6534 11.7022 82.7501 11.9715 82.9434 12.1953C83.1368 12.419 83.3906 12.5309 83.7048 12.5309C84.2526 12.5309 84.7723 12.3859 85.2638 12.0958V9.1994H86.7261V15.7629H85.2638Z" fill="white"/>
    <path d="M93.9137 15.7629H92.4635V14.9549C91.9479 15.5848 91.259 15.8997 90.3969 15.8997C89.7605 15.8997 89.2207 15.7215 88.7775 15.3651C88.3425 15.0005 88.1249 14.495 88.1249 13.8486C88.1249 13.1442 88.3626 12.6096 88.838 12.245C89.3133 11.8803 89.9377 11.698 90.7112 11.698C91.3315 11.698 91.9197 11.7892 92.4756 11.9715V11.8472C92.4756 11.3914 92.3386 11.0433 92.0647 10.803C91.7988 10.5627 91.4121 10.4425 90.9045 10.4425C90.3244 10.4425 89.7161 10.5792 89.0797 10.8527L88.6809 9.64692C89.4704 9.28228 90.2801 9.09995 91.11 9.09995C92.0365 9.09995 92.7334 9.34029 93.2007 9.82095C93.6761 10.3016 93.9137 10.9853 93.9137 11.8721V15.7629ZM92.4998 13.3886V13.0157C92.0647 12.8417 91.5773 12.7547 91.0375 12.7547C90.5782 12.7547 90.2197 12.8458 89.9619 13.0281C89.7041 13.2105 89.5752 13.4674 89.5752 13.7989C89.5752 14.0972 89.692 14.3334 89.9256 14.5074C90.1593 14.6814 90.4533 14.7685 90.8078 14.7685C91.2993 14.7685 91.7021 14.64 92.0164 14.3831C92.3386 14.1262 92.4998 13.7947 92.4998 13.3886Z" fill="white"/>
    <path d="M97.0186 15.7629V10.4922H94.9641V9.1994H100.547V10.4922H98.493V15.7629H97.0186Z" fill="white"/>
    <path d="M101.707 15.7629V9.1994H103.17V11.4991H104.632C105.389 11.4991 106.002 11.6732 106.469 12.0212C106.936 12.3693 107.17 12.8872 107.17 13.5751C107.17 14.2547 106.952 14.7892 106.517 15.1787C106.082 15.5682 105.49 15.7629 104.741 15.7629H101.707ZM103.17 14.5447H104.547C104.918 14.5447 105.204 14.4618 105.405 14.2961C105.607 14.1303 105.708 13.89 105.708 13.5751C105.708 13.285 105.603 13.0613 105.393 12.9038C105.192 12.7464 104.902 12.6676 104.523 12.6676H103.17V14.5447Z" fill="white"/>
    <path d="M112.069 15.7629V9.1994H113.532V11.8596H116.348V9.1994H117.81V15.7629H116.348V13.1151H113.532V15.7629H112.069Z" fill="white"/>
    <path d="M125 15.7629H123.55V14.9549C123.034 15.5848 122.345 15.8997 121.483 15.8997C120.847 15.8997 120.307 15.7215 119.864 15.3651C119.429 15.0005 119.211 14.495 119.211 13.8486C119.211 13.1442 119.449 12.6096 119.924 12.245C120.4 11.8803 121.024 11.698 121.797 11.698C122.418 11.698 123.006 11.7892 123.562 11.9715V11.8472C123.562 11.3914 123.425 11.0433 123.151 10.803C122.885 10.5627 122.498 10.4425 121.991 10.4425C121.411 10.4425 120.802 10.5792 120.166 10.8527L119.767 9.64692C120.557 9.28228 121.366 9.09995 122.196 9.09995C123.123 9.09995 123.82 9.34029 124.287 9.82095C124.762 10.3016 125 10.9853 125 11.8721V15.7629ZM123.586 13.3886V13.0157C123.151 12.8417 122.664 12.7547 122.124 12.7547C121.664 12.7547 121.306 12.8458 121.048 13.0281C120.79 13.2105 120.661 13.4674 120.661 13.7989C120.661 14.0972 120.778 14.3334 121.012 14.5074C121.246 14.6814 121.54 14.7685 121.894 14.7685C122.386 14.7685 122.788 14.64 123.103 14.3831C123.425 14.1262 123.586 13.7947 123.586 13.3886Z" fill="white"/>
</svg>
