<svg width="1920" height="122" viewBox="0 0 1920 122" fill="none" xmlns="http://www.w3.org/2000/svg">
    <path d="M165.191 36.8851C251.787 19.3231 339.482 -5.8669 430.278 1.22887C522.573 8.50204 610.068 48.8297 699.964 34.4016C713.663 32.2138 726.862 28.7842 740.961 28.0746C762.66 27.0102 783.559 32.4503 804.858 34.9338C899.253 45.9323 988.348 -1.43204 1084.54 1.11061C1137.34 2.52977 1185.24 18.7909 1235.44 28.6068C1304.93 42.1479 1381.23 43.2122 1451.72 31.5633C1496.02 24.231 1539.42 11.8726 1585.42 12.7595C1615.62 13.2917 1644.61 19.5596 1674.01 23.6988C1754.51 34.9338 1837.8 30.3216 1920 22.2797V122H0V51.1358C53.9972 54.6837 112.894 47.4697 165.191 36.8851Z" fill="#F5F9FF"/>
</svg>
