<svg width="180" height="52" viewBox="0 0 180 52" fill="none" xmlns="http://www.w3.org/2000/svg">
    <path d="M173.095 52H6.6575C2.99754 52 0 49.0734 0 45.5V6.5C0 2.92663 2.99754 2.74817e-06 6.6575 2.74817e-06H173.095C176.755 2.74817e-06 179.753 2.92663 179.753 6.5V45.5C179.753 49.0734 176.755 52 173.095 52Z" fill="black"/>
    <path d="M90.7215 28.2783C87.5942 28.2783 85.0394 30.602 85.0394 33.8082C85.0394 36.9883 87.5942 39.3364 90.7215 39.3364C93.8555 39.3364 96.4104 36.9883 96.4104 33.8082C96.4104 30.602 93.8555 28.2783 90.7215 28.2783ZM90.7215 37.1589C89.0056 37.1589 87.5293 35.776 87.5293 33.8082C87.5293 31.8143 89.0056 30.4558 90.7215 30.4558C92.4375 30.4558 93.9205 31.8143 93.9205 33.8082C93.9205 35.776 92.4375 37.1589 90.7215 37.1589ZM78.3236 28.2783C75.1896 28.2783 72.6414 30.602 72.6414 33.8082C72.6414 36.9883 75.1896 39.3364 78.3236 39.3364C81.4559 39.3364 84.0058 36.9883 84.0058 33.8082C84.0058 30.602 81.4559 28.2783 78.3236 28.2783ZM78.3236 37.1589C76.606 37.1589 75.1247 35.776 75.1247 33.8082C75.1247 31.8143 76.606 30.4558 78.3236 30.4558C80.0396 30.4558 81.5159 31.8143 81.5159 33.8082C81.5159 35.776 80.0396 37.1589 78.3236 37.1589ZM63.5706 29.9732V32.3229H69.3177C69.1496 33.6359 68.7002 34.6012 68.0111 35.2739C67.1723 36.0864 65.8657 36.9883 63.5706 36.9883C60.0338 36.9883 57.2643 34.2014 57.2643 30.7483C57.2643 27.2952 60.0338 24.5083 63.5706 24.5083C65.4829 24.5083 66.8744 25.2379 67.9013 26.1837L69.5973 24.5278C68.1609 23.1888 66.2502 22.1602 63.5706 22.1602C58.7206 22.1602 54.6445 26.013 54.6445 30.7483C54.6445 35.4835 58.7206 39.3364 63.5706 39.3364C66.192 39.3364 68.1609 38.4979 69.7088 36.9249C71.2949 35.3763 71.7893 33.1988 71.7893 31.4405C71.7893 30.8945 71.7427 30.3924 71.6594 29.9732H63.5706ZM123.898 31.7948C123.43 30.5582 121.987 28.2783 119.048 28.2783C116.135 28.2783 113.71 30.5192 113.71 33.8082C113.71 36.9054 116.11 39.3364 119.327 39.3364C121.929 39.3364 123.43 37.7878 124.047 36.8859L122.117 35.6298C121.473 36.5495 120.595 37.1589 119.327 37.1589C118.067 37.1589 117.163 36.595 116.584 35.4835L124.159 32.4237L123.898 31.7948ZM116.175 33.6359C116.11 31.5039 117.871 30.4119 119.132 30.4119C120.121 30.4119 120.96 30.8945 121.24 31.5852L116.175 33.6359ZM110.018 39H112.508V22.75H110.018V39ZM105.941 29.51H105.857C105.298 28.8633 104.231 28.2783 102.88 28.2783C100.044 28.2783 97.4506 30.7093 97.4506 33.826C97.4506 36.9249 100.044 39.3364 102.88 39.3364C104.231 39.3364 105.298 38.7465 105.857 38.0803H105.941V38.8733C105.941 40.9874 104.784 42.1233 102.918 42.1233C101.397 42.1233 100.453 41.0508 100.064 40.1489L97.8983 41.0313C98.5225 42.497 100.175 44.3008 102.918 44.3008C105.837 44.3008 108.301 42.6238 108.301 38.5434V28.6147H105.941V29.51ZM103.093 37.1589C101.377 37.1589 99.9405 35.7565 99.9405 33.826C99.9405 31.8777 101.377 30.4558 103.093 30.4558C104.784 30.4558 106.117 31.8777 106.117 33.826C106.117 35.7565 104.784 37.1589 103.093 37.1589ZM135.555 22.75H129.6V39H132.083V32.8429H135.555C138.313 32.8429 141.017 30.8945 141.017 27.7957C141.017 24.6984 138.306 22.75 135.555 22.75ZM135.62 30.5825H132.083V25.0104H135.62C137.474 25.0104 138.532 26.5135 138.532 27.7957C138.532 29.0534 137.474 30.5825 135.62 30.5825ZM150.97 28.2474C149.176 28.2474 147.31 29.0209 146.543 30.7353L148.747 31.6372C149.221 30.7353 150.093 30.4428 151.015 30.4428C152.303 30.4428 153.61 31.1984 153.63 32.5325V32.7032C153.181 32.4497 152.219 32.0743 151.035 32.0743C148.662 32.0743 146.243 33.3499 146.243 35.7305C146.243 37.908 148.187 39.3104 150.373 39.3104C152.044 39.3104 152.966 38.5743 153.545 37.7179H153.63V38.974H156.028V32.7405C156.028 29.8594 153.825 28.2474 150.97 28.2474ZM150.671 37.1524C149.858 37.1524 148.727 36.7592 148.727 35.776C148.727 34.5183 150.138 34.0357 151.36 34.0357C152.453 34.0357 152.966 34.2713 153.63 34.5817C153.435 36.0864 152.109 37.1524 150.671 37.1524ZM164.766 28.6033L161.912 35.6477H161.827L158.876 28.6033H156.198L160.632 38.4475L158.102 43.9254H160.697L167.529 28.6033H164.766ZM142.382 39H144.872V22.75H142.382V39Z" fill="white"/>
    <path d="M13.8938 9.80044C13.5027 10.2002 13.2764 10.8226 13.2764 11.6286V40.3781C13.2764 41.1841 13.5027 41.8064 13.8938 42.2062L13.9904 42.2939L30.491 26.1902V25.8099L13.9904 9.7062L13.8938 9.80044Z" fill="url(#paint0_linear)"/>
    <path d="M35.9853 31.5605L30.4912 26.1899V25.8097L35.992 20.439L36.1151 20.5089L42.6295 24.1278C44.4886 25.1548 44.4886 26.8448 42.6295 27.8783L36.1151 31.4907L35.9853 31.5605Z" fill="url(#paint1_linear)"/>
    <path d="M36.1146 31.4907L30.4907 25.9998L13.8936 42.206C14.511 42.8397 15.518 42.9161 16.6631 42.2823L36.1146 31.4907Z" fill="url(#paint2_linear)"/>
    <path d="M36.1146 20.5091L16.6631 9.71751C15.518 9.09025 14.511 9.16663 13.8936 9.80038L30.4907 26L36.1146 20.5091Z" fill="url(#paint3_linear)"/>
    <path d="M59.3023 15.9121C58.0777 15.9121 57.0545 15.4812 56.2327 14.6193C55.4109 13.7491 55 12.6801 55 11.4121C55 10.1524 55.4109 9.08752 56.2327 8.21736C57.0545 7.34719 58.0978 6.91211 59.3627 6.91211C60.0959 6.91211 60.7163 7.02813 61.2239 7.26018C61.7395 7.49222 62.2229 7.82786 62.6741 8.26708L61.7194 9.3983C60.962 8.6773 60.1725 8.31681 59.3507 8.31681C58.545 8.31681 57.8763 8.61515 57.3445 9.21183C56.8208 9.80852 56.559 10.5419 56.559 11.4121C56.559 12.274 56.8249 13.0074 57.3566 13.6124C57.8884 14.2091 58.553 14.5074 59.3507 14.5074C59.8341 14.5074 60.2611 14.4163 60.6317 14.2339C61.0023 14.0433 61.385 13.7574 61.7798 13.3762L62.7345 14.3707C62.2592 14.8845 61.7556 15.2698 61.2239 15.5268C60.6921 15.7837 60.0516 15.9121 59.3023 15.9121Z" fill="white"/>
    <path d="M64.1277 15.7629V9.1994H65.5779V12.3444L68.3575 9.1994H70.0736L67.5961 11.9591L70.2791 15.7629H68.5509L66.6172 13.053L65.5779 14.1842V15.7629H64.1277Z" fill="white"/>
    <path d="M76.6452 15.7629H75.195V14.9549C74.6793 15.5848 73.9905 15.8997 73.1284 15.8997C72.4919 15.8997 71.9521 15.7215 71.509 15.3651C71.0739 15.0005 70.8564 14.495 70.8564 13.8486C70.8564 13.1442 71.0941 12.6096 71.5694 12.245C72.0448 11.8803 72.6692 11.698 73.4426 11.698C74.063 11.698 74.6511 11.7892 75.2071 11.9715V11.8472C75.2071 11.3914 75.0701 11.0433 74.7962 10.803C74.5303 10.5627 74.1436 10.4425 73.636 10.4425C73.0559 10.4425 72.4476 10.5792 71.8111 10.8527L71.4123 9.64692C72.2019 9.28228 73.0116 9.09995 73.8414 9.09995C74.768 9.09995 75.4649 9.34029 75.9322 9.82095C76.4075 10.3016 76.6452 10.9853 76.6452 11.8721V15.7629ZM75.2312 13.3886V13.0157C74.7962 12.8417 74.3087 12.7547 73.7689 12.7547C73.3097 12.7547 72.9512 12.8458 72.6934 13.0281C72.4355 13.2105 72.3066 13.4674 72.3066 13.7989C72.3066 14.0972 72.4234 14.3334 72.6571 14.5074C72.8907 14.6814 73.1848 14.7685 73.5393 14.7685C74.0308 14.7685 74.4336 14.64 74.7478 14.3831C75.0701 14.1262 75.2312 13.7947 75.2312 13.3886Z" fill="white"/>
    <path d="M82.2638 15.7629V13.314C81.6353 13.6455 81.0029 13.8113 80.3664 13.8113C79.7138 13.8113 79.1861 13.6331 78.7832 13.2768C78.3885 12.9121 78.1911 12.4024 78.1911 11.7477V9.1994H79.6534V11.3872C79.6534 11.7022 79.7501 11.9715 79.9434 12.1953C80.1368 12.419 80.3906 12.5309 80.7048 12.5309C81.2526 12.5309 81.7723 12.3859 82.2638 12.0958V9.1994H83.7261V15.7629H82.2638Z" fill="white"/>
    <path d="M90.9137 15.7629H89.4635V14.9549C88.9479 15.5848 88.259 15.8997 87.3969 15.8997C86.7605 15.8997 86.2207 15.7215 85.7775 15.3651C85.3425 15.0005 85.1249 14.495 85.1249 13.8486C85.1249 13.1442 85.3626 12.6096 85.838 12.245C86.3133 11.8803 86.9377 11.698 87.7112 11.698C88.3315 11.698 88.9197 11.7892 89.4756 11.9715V11.8472C89.4756 11.3914 89.3386 11.0433 89.0647 10.803C88.7988 10.5627 88.4121 10.4425 87.9045 10.4425C87.3244 10.4425 86.7161 10.5792 86.0797 10.8527L85.6809 9.64692C86.4704 9.28228 87.2801 9.09995 88.11 9.09995C89.0365 9.09995 89.7334 9.34029 90.2007 9.82095C90.6761 10.3016 90.9137 10.9853 90.9137 11.8721V15.7629ZM89.4998 13.3886V13.0157C89.0647 12.8417 88.5773 12.7547 88.0375 12.7547C87.5782 12.7547 87.2197 12.8458 86.9619 13.0281C86.7041 13.2105 86.5752 13.4674 86.5752 13.7989C86.5752 14.0972 86.692 14.3334 86.9256 14.5074C87.1593 14.6814 87.4533 14.7685 87.8078 14.7685C88.2993 14.7685 88.7021 14.64 89.0164 14.3831C89.3386 14.1262 89.4998 13.7947 89.4998 13.3886Z" fill="white"/>
    <path d="M94.0186 15.7629V10.4922H91.9641V9.1994H97.5475V10.4922H95.493V15.7629H94.0186Z" fill="white"/>
    <path d="M98.7073 15.7629V9.1994H100.17V11.4991H101.632C102.389 11.4991 103.002 11.6732 103.469 12.0212C103.936 12.3693 104.17 12.8872 104.17 13.5751C104.17 14.2547 103.952 14.7892 103.517 15.1787C103.082 15.5682 102.49 15.7629 101.741 15.7629H98.7073ZM100.17 14.5447H101.547C101.918 14.5447 102.204 14.4618 102.405 14.2961C102.607 14.1303 102.708 13.89 102.708 13.5751C102.708 13.285 102.603 13.0613 102.393 12.9038C102.192 12.7464 101.902 12.6676 101.523 12.6676H100.17V14.5447Z" fill="white"/>
    <path d="M109.069 15.7629V9.1994H110.532V11.8596H113.348V9.1994H114.81V15.7629H113.348V13.1151H110.532V15.7629H109.069Z" fill="white"/>
    <path d="M122 15.7629H120.55V14.9549C120.034 15.5848 119.345 15.8997 118.483 15.8997C117.847 15.8997 117.307 15.7215 116.864 15.3651C116.429 15.0005 116.211 14.495 116.211 13.8486C116.211 13.1442 116.449 12.6096 116.924 12.245C117.4 11.8803 118.024 11.698 118.797 11.698C119.418 11.698 120.006 11.7892 120.562 11.9715V11.8472C120.562 11.3914 120.425 11.0433 120.151 10.803C119.885 10.5627 119.498 10.4425 118.991 10.4425C118.411 10.4425 117.802 10.5792 117.166 10.8527L116.767 9.64692C117.557 9.28228 118.366 9.09995 119.196 9.09995C120.123 9.09995 120.82 9.34029 121.287 9.82095C121.762 10.3016 122 10.9853 122 11.8721V15.7629ZM120.586 13.3886V13.0157C120.151 12.8417 119.664 12.7547 119.124 12.7547C118.664 12.7547 118.306 12.8458 118.048 13.0281C117.79 13.2105 117.661 13.4674 117.661 13.7989C117.661 14.0972 117.778 14.3334 118.012 14.5074C118.246 14.6814 118.54 14.7685 118.894 14.7685C119.386 14.7685 119.788 14.64 120.103 14.3831C120.425 14.1262 120.586 13.7947 120.586 13.3886Z" fill="white"/>
    <defs>
        <linearGradient id="paint0_linear" x1="29.0259" y1="40.6775" x2="7.21508" y2="18.3381" gradientUnits="userSpaceOnUse">
            <stop stop-color="#00A0FF"/>
            <stop offset="0.0066" stop-color="#00A1FF"/>
            <stop offset="0.2601" stop-color="#00BEFF"/>
            <stop offset="0.5122" stop-color="#00D2FF"/>
            <stop offset="0.7604" stop-color="#00DFFF"/>
            <stop offset="1" stop-color="#00E3FF"/>
        </linearGradient>
        <linearGradient id="paint1_linear" x1="45.0504" y1="25.998" x2="12.8322" y2="25.998" gradientUnits="userSpaceOnUse">
            <stop stop-color="#FFE000"/>
            <stop offset="0.4087" stop-color="#FFBD00"/>
            <stop offset="0.7754" stop-color="#FFA500"/>
            <stop offset="1" stop-color="#FF9C00"/>
        </linearGradient>
        <linearGradient id="paint2_linear" x1="33.0565" y1="23.0149" x2="3.4792" y2="-7.27908" gradientUnits="userSpaceOnUse">
            <stop stop-color="#FF3A44"/>
            <stop offset="1" stop-color="#C31162"/>
        </linearGradient>
        <linearGradient id="paint3_linear" x1="9.71571" y1="51.7709" x2="22.9233" y2="38.2434" gradientUnits="userSpaceOnUse">
            <stop stop-color="#32A071"/>
            <stop offset="0.0685" stop-color="#2DA771"/>
            <stop offset="0.4762" stop-color="#15CF74"/>
            <stop offset="0.8009" stop-color="#06E775"/>
            <stop offset="1" stop-color="#00F076"/>
        </linearGradient>
    </defs>
</svg>
