<svg width="178" height="50" viewBox="0 0 178 50" fill="none" xmlns="http://www.w3.org/2000/svg">
    <path d="M31.3361 15.2315C31.1933 16.2792 31.0345 17.3269 30.8916 18.3826C30.7488 19.4303 30.6218 20.486 30.4789 21.5337C30.336 22.5973 30.1694 23.6529 30.0185 24.7165C29.8757 25.7642 29.7487 26.8199 29.6058 27.8676C29.4629 28.9153 29.2883 29.963 29.1613 31.0107C29.1455 31.1615 29.2566 31.3917 29.3836 31.4949C29.8201 31.852 30.2884 32.1695 30.7408 32.5029C31.987 33.4157 33.2411 34.3285 34.5269 35.265C34.5745 35.146 34.638 35.0507 34.6539 34.9555C34.7332 34.4793 34.7967 34.003 34.8602 33.5268C34.9793 32.6775 35.1063 31.8282 35.2333 30.979C35.3524 30.1694 35.4635 29.3518 35.5746 28.5422C35.6937 27.7168 35.8048 26.8913 35.9238 26.0658C36.0667 25.0499 36.2254 24.026 36.3683 23.01C36.5112 22.002 36.6461 20.9939 36.789 19.9859C36.9319 18.9699 37.0906 17.946 37.2414 16.9301C37.3843 15.9221 37.5192 14.914 37.6621 13.906C37.8129 12.8742 37.9716 11.8423 38.1145 10.8026C38.2574 9.80246 38.3923 8.80237 38.5352 7.81022C38.7098 6.59583 38.8844 5.3735 39.067 4.1591C39.2178 3.1352 39.3765 2.11924 39.5194 1.09534C39.567 0.761973 39.5829 0.42861 39.6146 0C39.4321 0.111121 39.3765 0.14287 39.321 0.174619C34.3761 3.44475 29.4312 6.72282 24.4863 9.99296C16.7078 15.1283 8.92143 20.2637 1.13502 25.407C1.0239 25.4785 0.888968 25.5499 0.841345 25.661C0.555605 26.3436 0.277802 27.0421 0 27.7406C0.0238116 27.7723 0.0476233 27.7961 0.0793721 27.8279C10.6041 22.7639 21.1209 17.6921 31.6933 12.6043C31.5663 13.525 31.4552 14.3743 31.3361 15.2315Z" fill="#5FA598"/>
    <path d="M14.2151 28.6615C15.5327 28.0265 16.8503 27.3916 18.1679 26.7566C20.5014 25.6295 22.8429 24.5024 25.1764 23.3753C26.4146 22.7721 27.637 22.1371 28.891 21.5736C29.526 21.2878 30.034 21.0577 30.0499 20.2084C30.0658 19.3432 30.2801 18.486 30.4071 17.6288C30.5341 16.7954 30.661 15.962 30.7801 15.1286C30.8515 14.6444 30.9071 14.1682 30.9865 13.5967C20.7713 18.5178 10.6434 23.3991 0.523438 28.2726C0.531375 28.3202 0.547249 28.3599 0.555186 28.4075C0.785366 28.5266 1.01554 28.6377 1.24572 28.7568C2.96016 29.7013 4.66666 30.6538 6.3811 31.5983C7.65106 32.2968 8.93689 32.9794 10.2068 33.6778C11.9768 34.6462 13.7468 35.6304 15.5168 36.6067C16.7312 37.2734 17.9536 37.9322 19.1759 38.5989C20.8983 39.5514 22.6206 40.5118 24.351 41.4563C25.5574 42.1151 26.7718 42.7659 27.9703 43.4247C30.0499 44.5677 32.1294 45.7107 34.201 46.8615C35.1773 47.4013 36.1377 47.9728 37.1299 48.4807C37.5744 48.703 37.9871 49.1157 38.5745 48.9808C38.7094 48.949 38.8523 48.9252 38.9951 48.9014C39.5349 48.8062 40.0825 48.7109 40.6222 48.6157C40.6381 48.576 40.654 48.5363 40.6699 48.4966C31.7167 41.9881 22.7635 35.4796 13.7627 28.9393C13.9532 28.8203 14.0723 28.725 14.2151 28.6615Z" fill="#969696"/>
    <path d="M121.487 26.4547C122.638 24.4386 123.209 22.2559 123.225 19.9144C123.114 18.9937 123.05 18.073 122.892 17.1602C122.669 15.8347 122.201 14.5806 121.511 13.4297C120.534 11.8026 119.256 10.4453 117.732 9.2944C115.645 7.72284 113.304 6.81799 110.716 6.60369C109.073 6.46082 107.414 6.564 105.803 7.00055C103.731 7.56409 101.874 8.55624 100.279 9.977C98.8419 11.2549 97.6196 12.7074 96.8417 14.4933C96.1988 15.9696 95.7781 17.5015 95.7623 19.1207C95.7543 20.1446 95.8337 21.1685 95.9131 22.1844C96.0083 23.3195 96.3814 24.3831 96.8338 25.4149C97.5958 27.1452 98.7625 28.5818 100.152 29.8518C101.009 30.6376 101.961 31.2884 102.985 31.8361C104.573 32.6933 106.279 33.1775 108.057 33.3204C109.462 33.4315 110.891 33.3997 112.295 33.114C113.478 32.8679 114.621 32.4949 115.693 31.9393C116.74 31.3995 117.701 30.709 118.606 29.9312C119.764 28.9231 120.733 27.7802 121.487 26.4547ZM118.471 20.7319C118.248 24.9148 114.375 29.2644 109.43 29.0501C104.469 29.2089 100.342 25.0101 100.39 19.962C100.429 15.1124 104.128 10.4612 110.224 10.8501C114.312 11.112 118.788 14.7393 118.471 20.7319Z" fill="white"/>
    <path d="M150.934 30.7807C152.966 32.2808 155.244 33.1063 157.72 33.3206C159.268 33.4555 160.84 33.392 162.371 33.019C164.729 32.4475 166.769 31.2887 168.547 29.6536C169.372 28.8916 170.158 28.0661 170.706 27.0819C171.253 26.0977 171.809 25.1056 172.166 24.0499C172.61 22.7323 172.864 21.3513 172.817 19.9305C172.745 19.1923 172.682 18.4462 172.595 17.7081C172.46 16.5969 172.134 15.5333 171.666 14.5173C170.848 12.7314 169.682 11.1996 168.15 9.98517C167.285 9.30257 166.38 8.66759 165.435 8.11198C163.88 7.20714 162.149 6.75472 160.371 6.61185C159.006 6.50073 157.617 6.53248 156.252 6.82616C155.125 7.07221 154.006 7.37382 152.99 7.92149C152.125 8.38185 151.307 8.94539 150.505 9.51687C149.402 10.3027 148.473 11.2948 147.672 12.3901C146.322 14.2316 145.56 16.3191 145.394 18.5812C145.299 19.867 145.37 21.1925 145.553 22.4704C145.814 24.2642 146.513 25.939 147.577 27.4153C148.521 28.7011 149.64 29.8282 150.934 30.7807ZM159.816 10.8503C163.919 11.1043 168.412 14.7396 168.086 20.748C167.864 24.9309 163.991 29.2567 159.078 29.0583C154.006 29.2329 149.942 24.8992 150.005 19.9622C150.077 14.9856 153.887 10.4773 159.816 10.8503Z" fill="white"/>
    <path d="M67.006 32.9472C68.0299 33.098 69.0617 33.2488 70.0856 33.4155C70.4428 33.471 70.538 33.3996 70.5936 33.0345C70.7206 32.1455 70.8555 31.2645 71.0063 30.3834C71.2286 29.0421 71.4826 27.7007 71.7048 26.3593C71.9032 25.1449 72.0699 23.9226 72.2763 22.7082C72.5382 21.1207 72.8239 19.5333 73.1097 17.8744C75.5544 23.1844 77.9673 28.4388 80.4199 33.7568C82.8328 28.4309 85.2139 23.1765 87.6269 17.8506C88.5317 23.0971 89.4127 28.2483 90.3096 33.4631C91.8018 33.2329 93.2702 33.0027 94.7386 32.7725C92.9527 23.8829 91.1827 15.0646 89.3889 6.13525C86.3966 12.5088 83.4439 18.7872 80.4675 25.1211C77.4196 18.7792 74.3955 12.5088 71.3318 6.13525C71.0381 7.61158 70.7761 8.97678 70.5063 10.342C70.2285 11.7469 69.9348 13.1597 69.657 14.5646C69.3316 16.2155 69.0062 17.8665 68.6807 19.5174C68.3712 21.0652 68.0616 22.6129 67.7521 24.1607C67.5298 25.2639 67.3155 26.3672 67.0933 27.4705C66.7599 29.1373 66.4424 30.7962 66.0932 32.4551C66.0376 32.7329 66.117 32.8202 66.3472 32.8599C66.5615 32.8995 66.7837 32.9154 67.006 32.9472Z" fill="white"/>
    <path d="M41.1867 0.976525C40.9327 0.76222 40.647 0.587601 40.3057 0.357422C40.2501 0.666973 40.2104 0.873341 40.1787 1.08765C40.0676 1.89724 39.9564 2.70684 39.8453 3.51643C39.7263 4.37365 39.5913 5.23881 39.4643 6.09603C39.3373 6.92944 39.2103 7.76284 39.0913 8.59625C38.9484 9.55665 38.8055 10.525 38.6706 11.4854C38.5515 12.3188 38.4484 13.1602 38.3293 13.9936C38.1864 15.0175 38.0277 16.0493 37.8689 17.0732C37.742 17.9622 37.607 18.8432 37.48 19.7322C37.3689 20.5259 37.2657 21.3275 37.1546 22.1292C37.0435 22.9388 36.9324 23.7484 36.8133 24.558C36.6942 25.3914 36.5593 26.2248 36.4402 27.0582C36.3212 27.8837 36.2339 28.7092 36.1148 29.5346C35.964 30.5506 35.7973 31.5586 35.6465 32.5746C35.5037 33.5905 35.3846 34.6144 35.2338 35.6304C35.202 35.8765 35.1068 36.1066 35.0433 36.3606C34.7734 36.1781 34.5671 36.0511 34.3686 35.9082C32.0589 34.2096 29.7492 32.5111 27.4394 30.8205C25.4234 29.3441 23.3915 27.8757 21.3675 26.4074C21.0897 26.2089 20.8595 26.1613 20.5182 26.3359C19.0816 27.0582 17.6211 27.7329 16.1765 28.4314C15.8114 28.606 15.4542 28.8044 15.0098 29.0266C23.7248 35.3605 32.3764 41.6468 41.0994 47.9807C41.1153 47.7585 41.1232 47.687 41.1232 47.6077C41.147 44.2105 41.1867 40.8134 41.2026 37.4163C41.2343 29.6219 41.2661 21.8276 41.2819 14.0332C41.2899 9.81065 41.2819 5.59598 41.2819 1.37339C41.2899 1.23845 41.2661 1.0559 41.1867 0.976525Z" fill="white"/>
    <path d="M138.893 23.5577C137.972 22.3671 137.068 21.1606 136.163 19.9621C135.988 19.7319 135.686 19.5097 135.678 19.2795C135.671 19.0493 135.956 18.7953 136.131 18.5731C136.909 17.5968 137.695 16.6285 138.488 15.6601C139.258 14.7235 140.036 13.7949 140.806 12.8583C141.727 11.7312 142.647 10.5962 143.568 9.4691C143.941 9.00874 144.306 8.54838 144.679 8.08803C143.282 7.45305 141.925 6.83395 140.576 6.21484C137.425 10.1755 134.289 14.1282 131.154 18.081C131.13 18.0651 131.099 18.0492 131.075 18.0413C131.075 14.2632 131.075 10.4851 131.075 6.66726C129.503 6.85776 127.964 7.04825 126.432 7.23081C126.432 15.8665 126.432 24.4387 126.432 33.0664C127.995 32.9156 129.519 32.7648 131.099 32.6061C131.099 28.5819 131.099 24.5577 131.099 20.4542C131.9 21.486 132.646 22.4306 133.377 23.391C134.345 24.6609 135.298 25.9388 136.266 27.2088C137.758 29.1613 139.258 31.098 140.734 33.0585C140.901 33.2807 140.996 33.2649 141.203 33.1855C142.497 32.6696 143.798 32.1537 145.124 31.6298C143.973 30.1297 142.83 28.6454 141.687 27.1691C140.758 25.9547 139.814 24.7641 138.893 23.5577Z" fill="white"/>
    <path d="M63.2514 20.6845C62.5767 20.0733 61.783 19.5574 60.9734 19.1526C59.1558 18.2477 57.2826 17.454 55.4332 16.5889C54.5204 16.1682 53.8775 15.557 53.7108 14.4696C53.4886 13.033 54.0918 11.7868 55.3618 11.2471C56.9651 10.5645 58.5763 10.6994 60.0289 11.7233C60.6797 12.1758 61.2591 12.7234 61.8544 13.2076C62.8069 12.2551 63.7752 11.2868 64.7753 10.2867C64.7515 10.2391 64.7118 10.128 64.6324 10.0486C63.8705 9.23106 63.0609 8.45322 62.1084 7.8738C60.0924 6.63559 57.8699 6.34986 55.584 6.69909C54.3617 6.88959 53.2029 7.34994 52.1631 8.08017C51.4329 8.59609 50.782 9.19138 50.2899 9.90573C49.5914 10.9058 49.1628 12.0329 49.0438 13.287C48.9406 14.4299 48.9723 15.5332 49.3612 16.6127C49.9565 18.2716 51.0677 19.4939 52.6472 20.232C54.195 20.9464 55.7983 21.5417 57.354 22.2402C58.1001 22.5735 58.8541 22.9624 59.505 23.4546C60.3067 24.0737 60.5527 24.9944 60.4972 26.0103C60.4575 26.7168 60.2352 27.3279 59.759 27.8438C58.5049 29.1932 56.9333 29.2567 55.2824 28.8995C53.7743 28.5741 52.7663 27.5263 51.8456 26.3834C51.7107 26.2167 51.5995 26.0341 51.4567 25.8198C50.782 26.5024 50.147 27.1374 49.512 27.7645C49.2025 28.0661 48.8691 28.3439 48.5675 28.6534C48.4961 28.7249 48.4723 28.9233 48.5199 29.0027C49.0676 29.9154 49.7581 30.7171 50.5836 31.3838C51.9964 32.5189 53.6315 33.1697 55.4253 33.3126C57.0127 33.4396 58.624 33.3681 60.14 32.7887C61.4893 32.2728 62.6561 31.495 63.5689 30.3361C64.3388 29.3598 64.8785 28.2883 65.0769 27.0977C65.2754 25.931 65.2833 24.7324 64.9499 23.5577C64.6404 22.4465 64.0927 21.4464 63.2514 20.6845Z" fill="white"/>
    <path d="M90.6507 46.5516C89.8411 44.7578 89.0315 42.9639 88.214 41.1701C87.7615 40.17 87.3091 39.1779 86.8488 38.1857C86.8011 38.0905 86.6741 37.9953 86.5709 37.9794C86.4995 37.9714 86.3725 38.0905 86.3328 38.1778C85.3883 40.2574 84.4517 42.3369 83.5151 44.4165C83.1421 45.2419 82.769 46.0674 82.3722 46.9326C80.9117 44.0196 79.483 41.1543 78.0384 38.2969C77.9749 38.1619 77.8241 38.0667 77.721 37.9556C77.6098 38.0667 77.467 38.1619 77.4035 38.2889C75.9589 41.1543 74.5223 44.0196 73.0856 46.8849C73.0539 46.8691 73.0221 46.8532 73.0142 46.8373C71.9903 45.5435 70.9664 44.2418 69.9584 42.9401C69.9028 42.8687 69.8949 42.6703 69.9504 42.5988C70.3314 42.1147 70.7362 41.6464 71.1251 41.1701C71.7363 40.432 72.3475 39.6938 72.9507 38.9477C73.1094 38.7572 73.1332 38.5747 72.8316 38.4715C72.5221 38.3683 72.2284 38.2096 71.9189 38.1461C71.7442 38.1064 71.4585 38.1222 71.3632 38.2413C70.7521 38.9398 70.1727 39.6779 69.5853 40.4002C69.0932 41.0035 68.6011 41.5987 68.0376 42.2813C68.0376 40.8606 68.0376 39.543 68.0376 38.1619C67.4343 38.2254 66.8787 38.2889 66.3311 38.3445C66.3311 41.5591 66.3311 44.7101 66.3311 47.9088C66.9184 47.8453 67.474 47.7898 68.0614 47.7263C68.0614 46.2579 68.0614 44.8451 68.0614 43.3449C69.1567 44.7816 70.2044 46.1388 71.2363 47.504C71.6331 48.0279 71.6172 48.0358 72.2284 47.7977C72.4348 47.7183 72.6491 47.5596 72.8475 47.5834C73.2523 47.631 73.6492 47.7501 74.0302 47.893C74.3715 48.02 74.5381 47.9009 74.681 47.6072C75.0779 46.7738 75.5065 45.9483 75.8954 45.107C75.9906 44.9086 76.0938 44.8451 76.3081 44.853C77.2209 44.8689 78.1337 44.8689 79.0465 44.853C79.3322 44.8451 79.4592 44.9483 79.5703 45.2022C79.9513 46.0357 80.3641 46.8452 80.753 47.6707C80.872 47.9247 81.0228 47.9882 81.3165 47.9247C81.7293 47.8374 82.1499 47.8056 82.5706 47.8056C82.8881 47.8056 83.2135 47.9009 83.531 47.9485C83.7532 47.9882 83.8961 47.9009 83.9914 47.6787C84.6025 46.2261 85.2216 44.7816 85.8407 43.3291C86.063 42.8052 86.3011 42.2972 86.5551 41.7337C87.4679 43.7735 88.3568 45.742 89.2537 47.7104C89.3014 47.8215 89.476 47.9406 89.5792 47.9326C89.984 47.9088 90.3808 47.8215 90.7777 47.7898C91.0952 47.766 91.1269 47.6152 91.0158 47.3691C90.8888 47.0992 90.7777 46.8294 90.6507 46.5516ZM76.7447 43.337C77.0701 42.6544 77.3717 42.0035 77.7289 41.2654C78.0781 41.9877 78.3877 42.6385 78.729 43.337C78.0305 43.337 77.4273 43.337 76.7447 43.337Z" fill="#5FA598"/>
    <path d="M172.007 46.1785C171.753 45.607 171.507 45.0356 171.253 44.4641C170.356 42.4163 169.459 40.3605 168.547 38.3127C168.483 38.1778 168.348 38.0746 168.245 37.9556C168.134 38.0746 167.975 38.1778 167.912 38.3207C166.872 40.6939 165.824 43.0592 164.816 45.4483C164.594 45.9801 164.348 46.3531 163.705 46.2103C163.689 46.2103 163.665 46.242 163.649 46.2579C163.649 47.3929 163.649 48.5279 163.649 49.7265C164.213 49.663 164.745 49.5995 165.316 49.536C165.316 48.9169 165.316 48.3613 165.316 47.8056C167.285 47.8056 169.213 47.8056 171.182 47.8056C171.182 48.4406 171.182 49.0597 171.182 49.7265C171.769 49.655 172.301 49.5915 172.841 49.528C172.841 48.6787 172.841 47.9009 172.841 47.1151C172.841 46.25 172.841 46.25 172.007 46.1785ZM166.269 46.2738C166.904 44.7736 167.531 43.2894 168.189 41.7337C168.848 43.2894 169.475 44.7657 170.11 46.2738C168.824 46.2738 167.57 46.2738 166.269 46.2738Z" fill="#5FA598"/>
    <path d="M160.871 39.4004C160.221 40.1148 159.586 40.8371 158.935 41.5435C158.141 42.4166 157.339 43.2817 156.466 44.2263C156.466 42.1388 156.466 40.1624 156.466 38.1384C155.863 38.2019 155.307 38.2654 154.76 38.321C154.76 41.607 154.76 44.8454 154.76 48.1949C154.982 48.0679 155.172 48.0123 155.292 47.8853C156.03 47.1154 156.752 46.3296 157.482 45.5438C157.847 45.147 158.197 44.7342 158.57 44.3374C159.308 43.5357 160.054 42.742 160.856 41.8768C160.856 43.9167 160.856 45.8772 160.856 47.8933C161.467 47.8218 162.03 47.7583 162.586 47.6948C162.586 44.4009 162.586 41.1704 162.586 37.813C162.379 37.9162 162.213 37.9559 162.118 38.059C161.689 38.5115 161.276 38.9559 160.871 39.4004Z" fill="#5FA598"/>
    <path d="M137.997 43.6941C137.838 43.8687 137.656 44.0354 137.433 44.2576C137.433 44.0036 137.433 43.8608 137.433 43.7179C137.433 42.0114 137.425 40.3049 137.441 38.5984C137.441 38.2968 137.37 38.146 137.044 38.1857C136.6 38.2412 136.147 38.2968 135.711 38.3444C135.711 41.6304 135.711 44.8529 135.711 48.0675C136.076 48.2183 136.227 47.9326 136.401 47.7421C136.949 47.1547 137.489 46.5594 138.029 45.9641C138.735 45.1863 139.441 44.4005 140.156 43.6226C140.672 43.0591 141.203 42.4956 141.727 41.932C141.759 41.9479 141.783 41.9558 141.815 41.9717C141.815 43.9322 141.815 45.8927 141.815 47.9008C142.418 47.8373 142.973 47.7738 143.521 47.7182C143.521 44.4322 143.521 41.1939 143.521 37.8682C143.339 37.9634 143.188 38.0031 143.093 38.0983C141.386 39.9636 139.695 41.8288 137.997 43.6941Z" fill="#5FA598"/>
    <path d="M112.327 42.1228C110.946 42.1228 109.589 42.1228 108.192 42.1228C108.192 40.7655 108.192 39.44 108.192 38.0669C107.589 38.1383 107.041 38.1939 106.493 38.2574C106.493 41.5116 106.493 44.7183 106.493 47.9805C107.088 47.909 107.644 47.8455 108.231 47.782C108.231 46.401 108.231 45.0834 108.231 43.7658C109.612 43.7658 110.97 43.7658 112.367 43.7658C112.367 45.1707 112.367 46.5518 112.367 47.9805C112.97 47.909 113.518 47.8535 114.065 47.79C114.065 44.5357 114.065 41.3291 114.065 38.0669C113.47 38.1304 112.914 38.1939 112.327 38.2653C112.327 39.5988 112.327 40.8608 112.327 42.1228Z" fill="#5FA598"/>
    <path d="M121.693 42.1228C120.312 42.1228 118.955 42.1228 117.574 42.1228C117.574 40.7735 117.574 39.4559 117.574 38.0748C116.978 38.1383 116.415 38.2018 115.867 38.2574C115.867 41.5275 115.867 44.7262 115.867 47.9884C116.455 47.9249 117.01 47.8614 117.605 47.79C117.605 46.401 117.605 45.0834 117.605 43.7738C118.987 43.7738 120.344 43.7738 121.725 43.7738C121.725 45.1786 121.725 46.5438 121.725 47.9805C122.32 47.917 122.884 47.8535 123.431 47.7979C123.431 44.5278 123.431 41.3291 123.431 38.0669C122.836 38.1383 122.273 38.2018 121.693 38.2733C121.693 39.6067 121.693 40.8687 121.693 42.1228Z" fill="#5FA598"/>
    <path d="M101.692 38.3608C100.986 38.4005 100.319 38.6386 99.7713 39.1307C99.1125 39.726 98.9061 40.4879 98.922 41.3531C98.9299 42.1389 99.1839 42.7977 99.7951 43.2818C100.081 43.5041 100.43 43.6549 100.756 43.8295C100.478 44.2026 100.2 44.5677 99.9221 44.9328C99.3982 45.6233 98.8823 46.3059 98.3585 46.9885C98.1838 47.2187 98.16 47.4092 98.4855 47.5203C98.795 47.6235 99.1046 47.7267 99.3982 47.8616C99.7475 48.0283 99.9697 47.8934 100.16 47.6076C100.367 47.306 100.573 47.0044 100.795 46.7107C101.502 45.7344 102.216 44.7582 102.986 43.6866C102.986 45.1391 102.986 46.4805 102.986 47.8934C103.589 47.8299 104.153 47.7743 104.7 47.7187C104.7 44.5597 104.7 41.4563 104.7 38.337C103.668 38.3449 102.676 38.3052 101.692 38.3608ZM102.946 42.7739C102.47 42.6945 102.025 42.6786 101.613 42.5437C100.97 42.3452 100.7 41.7896 100.684 41.2658C100.668 40.6943 101.152 40.1387 101.756 40.0196C102.137 39.9403 102.533 39.9323 102.954 39.8847C102.946 40.8531 102.946 41.7579 102.946 42.7739Z" fill="#5FA598"/>
    <path d="M94.7384 41.8449C94.2701 41.8131 93.7938 41.8369 93.2779 41.8369C93.2779 40.5749 93.2779 39.3526 93.2779 38.0747C92.6747 38.1382 92.1191 38.1938 91.5635 38.2573C91.5635 41.4718 91.5635 44.615 91.5635 47.7978C92.7144 47.7978 93.8494 47.7978 94.9844 47.7978C95.167 47.7978 95.3416 47.7581 95.5241 47.7184C97.8498 47.2263 98.326 44.7499 97.4053 43.2418C96.81 42.2497 95.8258 41.9163 94.7384 41.8449ZM94.9447 46.123C94.778 46.1548 94.6114 46.1945 94.4447 46.2024C94.0796 46.2183 93.7065 46.2024 93.3176 46.2024C93.3176 45.2817 93.3176 44.3769 93.3176 43.3926C93.8653 43.4323 94.3891 43.4482 94.905 43.5117C95.5162 43.5911 96.0639 44.226 96.0718 44.8055C96.0798 45.4008 95.5638 46.004 94.9447 46.123Z" fill="#5FA598"/>
    <path d="M128.408 41.845C127.94 41.8133 127.464 41.8371 126.948 41.8371C126.948 40.5751 126.948 39.3527 126.948 38.0669C126.337 38.1304 125.781 38.1939 125.226 38.2574C125.226 41.464 125.226 44.6072 125.226 47.8297C126.575 47.79 127.924 47.9011 129.218 47.6789C131.567 47.2661 131.988 44.6865 131.052 43.2102C130.448 42.2419 129.472 41.9244 128.408 41.845ZM129.726 44.8215C129.678 45.4961 129.289 46.02 128.512 46.1232C128.012 46.1867 127.504 46.2025 126.972 46.2422C126.972 45.2501 126.972 44.3611 126.972 43.4007C127.535 43.4404 128.083 43.4404 128.623 43.5277C129.226 43.615 129.766 44.2659 129.726 44.8215Z" fill="#5FA598"/>
    <path d="M170.404 6.69115C172.222 6.77846 173.69 5.24658 173.73 3.69089C173.778 1.93676 172.158 0.412818 170.563 0.555688C168.968 0.428692 167.459 1.92883 167.412 3.50833C167.372 5.31008 168.983 6.61972 170.404 6.69115Z" fill="#5FA598"/>
    <path d="M153.078 38.3369C151.665 38.3449 150.244 38.3369 148.831 38.3449C148.744 38.3449 148.657 38.3607 148.577 38.3687C148.577 41.5753 148.577 44.7581 148.577 47.9806C149.165 47.9171 149.72 47.8536 150.307 47.7901C150.307 45.1391 150.307 42.5436 150.307 39.9164C151.458 39.9164 152.562 39.9164 153.752 39.9164C153.649 39.4719 153.53 39.0751 153.482 38.6703C153.459 38.3766 153.324 38.3369 153.078 38.3369Z" fill="#5FA598"/>
    <path d="M132.21 47.9805C132.797 47.917 133.361 47.8535 133.909 47.7979C133.909 44.5357 133.909 41.3291 133.909 38.0669C133.313 38.1383 132.758 38.2018 132.21 38.2653C132.21 41.5275 132.21 44.7183 132.21 47.9805Z" fill="#5FA598"/>
    <path d="M173.849 7.38184C172.483 7.38184 171.491 8.22318 171.491 9.38201C171.491 10.7869 172.317 11.7473 173.523 11.7473C174.952 11.7473 175.857 10.906 175.857 9.57251C175.857 8.35018 174.968 7.38184 173.849 7.38184Z" fill="white"/>
    <path d="M176.325 3.73047C175.42 3.73047 174.674 4.47657 174.666 5.37347C174.658 6.29419 175.404 7.0641 176.317 7.0641C177.238 7.07204 178 6.318 178 5.40522C178 4.4845 177.246 3.73047 176.325 3.73047Z" fill="#969696"/>
    <path d="M139.71 38.3525C140.417 38.408 141.091 38.0985 141.615 37.4556C142.131 36.8126 142.068 36.5983 141.306 36.3602C141.282 36.3523 141.258 36.3285 141.234 36.3205C140.98 36.2412 140.79 36.265 140.671 36.5507C140.48 37.0111 140.068 37.2254 139.607 37.2174C139.131 37.2174 138.71 36.9873 138.512 36.519C138.401 36.257 138.234 36.2412 138.012 36.3047C137.877 36.3443 137.742 36.4078 137.607 36.4317C137.234 36.4872 137.218 36.6856 137.345 36.9873C137.774 37.9715 138.559 38.3604 139.71 38.3525Z" fill="#5FA598"/>
</svg>
