<svg width="68" height="66" viewBox="0 0 68 66" fill="none" xmlns="http://www.w3.org/2000/svg">
    <path d="M56.9597 2.94022C55.9079 1.12664 53.9019 0 51.7242 0H34.1275C30.8315 0 28.15 2.60223 28.15 5.80078V13.5352C28.15 16.7337 30.8315 19.3359 34.1275 19.3359H46.0825C47.1812 19.3359 48.075 20.2033 48.075 21.2695V36.4589C42.3299 34.9348 36.2737 34.7464 30.452 35.8956C26.0163 31.7767 19.734 30.101 13.4604 31.6233C7.18777 33.1453 1.9819 38.1127 0.491914 44.2955C-0.789395 49.614 0.459769 55.0921 3.91954 59.3251C7.38635 63.567 12.5386 66 18.0547 66C44.0654 66 62.0707 56.4086 66.8985 54.0655C67.5736 53.7379 68 53.0684 68 52.3359V43.9478C68 29.5732 64.1822 15.393 56.9597 2.94022ZM64.015 51.1445C57.5419 54.3086 41.1552 62.1328 18.0547 62.1328C13.7623 62.1328 9.74826 60.2335 7.04152 56.9218C4.34235 53.6192 3.36935 49.338 4.37224 45.1758C5.49893 40.4994 9.53971 36.5606 14.4269 35.3747C18.4395 34.401 22.4624 35.0669 25.7108 37.1476C24.1572 37.6656 22.6328 38.2846 21.1487 39.0047C20.1644 39.4823 19.7655 40.6438 20.2576 41.5989C20.7496 42.554 21.9465 42.9412 22.9308 42.4637C32.3955 37.8712 43.6964 37.8711 53.1615 42.4637C54.1474 42.9422 55.3434 42.5523 55.8346 41.5989C56.3268 40.6438 55.9279 39.4823 54.9436 39.0047C53.9979 38.5458 53.0355 38.1288 52.06 37.7519V21.2695C52.06 18.071 49.3785 15.4688 46.0825 15.4688H44.09V9.66797C44.09 8.60011 43.1979 7.73438 42.0975 7.73438H38.1125C37.0121 7.73438 36.12 8.60011 36.12 9.66797C36.12 10.7358 37.0121 11.6016 38.1125 11.6016H40.105V15.4688H34.1275C33.0289 15.4688 32.135 14.6013 32.135 13.5352V5.80078C32.135 4.7346 33.0289 3.86719 34.1275 3.86719H51.7243C52.4646 3.86719 53.1401 4.23882 53.4872 4.83695C60.3747 16.7119 64.0151 30.2361 64.0151 43.9478V51.1445H64.015Z" fill="white"/>
</svg>
