<svg width="77" height="77" viewBox="0 0 77 77" fill="none" xmlns="http://www.w3.org/2000/svg">
    <path d="M67.8262 21.5725V20.4531C67.8262 9.17518 58.7184 0 47.5234 0C41.9122 0 36.8257 2.30534 33.1471 6.02495C31.3121 5.12907 29.2964 4.66211 27.2207 4.66211C19.7574 4.66211 13.6855 10.734 13.6855 18.1973C13.6855 21.6609 14.9939 24.8242 17.1415 27.2207H0V49.7778H17.1415C14.9939 52.1758 13.6855 55.3391 13.6855 58.8027C13.6855 66.266 19.7574 72.3379 27.2207 72.3379C29.2964 72.3379 31.3121 71.8709 33.1471 70.9751C36.8257 74.6947 41.9122 77 47.5234 77C58.7184 77 67.8262 67.8248 67.8262 56.5469V55.4275C73.3502 51.7885 77 45.5598 77 38.5C77 31.4402 73.3502 25.2115 67.8262 21.5725ZM56.5469 54.291H52.0352V58.8027H56.5469C58.9029 58.8027 61.1666 58.4039 63.2746 57.673C62.7003 65.9395 55.8555 72.4883 47.5234 72.4883C38.8163 72.4883 31.7324 65.3371 31.7324 56.5469H27.2207C27.2207 60.4897 28.3351 64.1748 30.2614 67.3015C29.2944 67.6474 28.2692 67.8262 27.2207 67.8262C22.2452 67.8262 18.1973 63.7783 18.1973 58.8027C18.1973 53.8272 22.2452 49.7793 27.2207 49.7793H33.9883C35.2322 49.7793 36.2441 50.7913 36.2441 52.0352H40.7559C40.7559 48.3035 37.7199 45.2676 33.9883 45.2676H4.51172V31.7324H33.9883C37.7199 31.7324 40.7559 28.6965 40.7559 24.9648H36.2441C36.2441 26.2087 35.2322 27.2207 33.9883 27.2207H27.2207C22.2452 27.2207 18.1973 23.1728 18.1973 18.1973C18.1973 13.2217 22.2452 9.17383 27.2207 9.17383C28.2692 9.17383 29.2944 9.35264 30.2614 9.69854C28.3351 12.8252 27.2207 16.5103 27.2207 20.4531H31.7324C31.7324 11.6629 38.8163 4.51172 47.5234 4.51172C55.8555 4.51172 62.7003 11.0605 63.2746 19.327C61.1666 18.5961 58.9029 18.1973 56.5469 18.1973H52.0352V22.709H56.5469C65.3369 22.709 72.4883 29.7928 72.4883 38.5C72.4883 47.2072 65.3369 54.291 56.5469 54.291Z" fill="white"/>
</svg>
