<svg width="79" height="77" viewBox="0 0 79 77" fill="none" xmlns="http://www.w3.org/2000/svg">
    <path d="M65.9217 2.24246L64.2986 0.660808C63.3946 -0.220194 61.9286 -0.220345 61.0245 0.660808L0.678187 59.4726C0.244018 59.8957 0 60.4696 0 61.0681C0 61.6664 0.244018 62.2403 0.678187 62.6634C18.5339 81.5553 48.0982 81.6192 65.9217 63.7846C74.3555 55.5654 79 44.6374 79 33.0136C79 21.3899 74.3553 10.4618 65.9217 2.24246ZM55.8892 12.0474C81.211 40.8981 42.2577 79.0794 13.1916 53.659L55.8892 12.0474ZM62.6477 60.5936C46.802 76.5254 21.0721 76.2026 5.58941 61.0679L9.91336 56.8539C36.9164 80.0199 69.0272 57.6157 68.6854 31.8482C68.5781 23.5201 65.214 15.4331 59.168 8.85171L62.6615 5.44713C70.212 12.8125 74.3695 22.6015 74.3695 33.0136C74.3697 43.4321 70.2067 53.2269 62.6477 60.5936Z" fill="white"/>
    <path d="M28.4085 53.3182C29.6482 53.3182 30.6532 52.3388 30.6532 51.1307C30.6532 49.9225 29.6482 48.9431 28.4085 48.9431C27.1689 48.9431 26.1639 49.9225 26.1639 51.1307C26.1639 52.3388 27.1689 53.3182 28.4085 53.3182Z" fill="white"/>
    <path d="M40.4369 41.5959C41.6765 41.5959 42.6815 40.6165 42.6815 39.4084C42.6815 38.2002 41.6765 37.2208 40.4369 37.2208C39.1972 37.2208 38.1922 38.2002 38.1922 39.4084C38.1922 40.6165 39.1972 41.5959 40.4369 41.5959Z" fill="white"/>
    <path d="M52.465 29.8735C53.7047 29.8735 54.7097 28.8941 54.7097 27.6859C54.7097 26.4778 53.7047 25.4984 52.465 25.4984C51.2254 25.4984 50.2204 26.4778 50.2204 27.6859C50.2204 28.8941 51.2254 29.8735 52.465 29.8735Z" fill="white"/>
    <path d="M52.2539 38.6277C51.3774 39.4819 51.3774 40.867 52.2539 41.7212C53.1304 42.5754 54.5516 42.5754 55.4281 41.7212C56.3047 40.867 56.3047 39.4819 55.4281 38.6277C54.5516 37.7735 53.1306 37.7735 52.2539 38.6277Z" fill="white"/>
    <path d="M40.2 50.3753C39.3234 51.2295 39.3234 52.6145 40.2 53.4688C41.0765 54.323 42.4977 54.323 43.3742 53.4688C44.2507 52.6145 44.2507 51.2295 43.3742 50.3753C42.4977 49.521 41.0765 49.521 40.2 50.3753Z" fill="white"/>
</svg>
