<svg width="89" height="77" viewBox="0 0 89 77" fill="none" xmlns="http://www.w3.org/2000/svg">
    <path d="M87.2152 40.2851C84.8852 34.4679 79.921 30.8598 73.9361 30.6331C72.2826 30.5708 70.5459 30.7223 68.4728 31.1115C67.7513 31.2469 67.068 31.4424 66.4071 31.6319C66.6162 29.5325 67.563 26.5544 70.9094 24.3755L68.0527 19.9521C63.506 22.9126 61.9178 26.9124 61.3859 29.7464C61.2663 30.3838 61.194 30.9902 61.1543 31.5529C61.0921 31.5351 61.0304 31.5174 60.9676 31.4998C59.9893 29.6948 59.1642 27.8566 58.6536 25.8632C56.935 19.1521 53.259 15.8269 50.4778 14.2191C49.5132 13.6616 48.4833 13.2598 47.4247 13.0132C46.3555 4.3944 39.638 0.189194 39.3285 0L36.5853 4.49494C36.7928 4.62531 41.1384 7.42396 42.1193 13.0603C41.1272 13.3098 40.1625 13.6953 39.2554 14.2194C37.3896 15.298 35.1216 17.1519 33.3114 20.2808C31.2922 19.6537 29.1672 19.2713 26.9701 19.1694C25.6854 12.2514 20.2703 8.86072 20.0101 8.70172L17.2804 13.2049C17.3197 13.2288 20.5955 15.2818 21.6606 19.4771C9.52961 21.4617 0.240057 32.0547 0.240057 44.7869C0.240057 49.7461 1.65015 54.3805 4.08792 58.3085C1.60582 60.2074 0 63.2047 0 66.5723C0 72.2993 4.64052 76.9585 10.3442 76.9585C13.41 76.9585 16.1671 75.6111 18.063 73.4767C19.959 75.6112 22.716 76.9585 25.782 76.9585C28.5946 76.9585 31.1471 75.8242 33.0135 73.9891C36.5011 75.9104 40.4427 76.9654 44.541 76.9986C44.649 76.9996 44.7576 77 44.8668 77C44.976 77 45.0846 76.9996 45.1915 76.9988C48.1864 76.9745 51.0975 76.4038 53.8094 75.3501C55.1533 76.1699 56.8545 77.0002 58.7155 77C58.7214 77 58.7279 77 58.7338 77C60.9101 76.9935 62.7301 76.3846 63.9196 75.8432C65.1091 76.3846 66.9291 76.9935 69.1054 77C69.1115 77 69.1176 77 69.1238 77C71.5819 77 73.7631 75.5514 75.2075 74.5916C77.6211 72.9885 79.8852 70.9266 81.9372 68.4637C88.837 60.1813 90.8593 49.3837 87.2152 40.2851ZM5.49054 44.7869C5.49054 33.5528 14.5932 24.4134 25.7818 24.4134C27.6825 24.4134 29.5223 24.6783 31.2682 25.1712C31.2034 25.3981 31.1401 25.6282 31.08 25.8632C30.187 29.3503 28.3356 32.3632 26.3755 35.5528C24.175 39.1336 21.8996 42.8361 20.9013 47.4133C20.1688 50.7718 20.1623 54.1841 20.8305 57.4561C19.7855 58.0306 18.8505 58.7818 18.0632 59.6681C16.1674 57.5338 13.4101 56.1864 10.3443 56.1864C9.90004 56.1864 9.46338 56.2178 9.03368 56.2726C6.80016 53.0002 5.49054 49.0448 5.49054 44.7869ZM10.3442 71.6869C7.53563 71.6869 5.25048 69.3924 5.25048 66.5725C5.25048 63.7526 7.53563 61.4583 10.3442 61.4583C13.1527 61.4583 15.4377 63.7526 15.4377 66.5725C15.4377 69.3924 13.1529 71.6869 10.3442 71.6869ZM25.7818 71.6869C22.9733 71.6869 20.6882 69.3924 20.6882 66.5725C20.6882 63.7526 22.9733 61.4583 25.7818 61.4583C28.5904 61.4583 30.8754 63.7526 30.8754 66.5725C30.8754 69.3924 28.5906 71.6869 25.7818 71.6869ZM45.148 71.7273C44.9614 71.7287 44.7731 71.7289 44.5843 71.7272C41.4377 71.7017 38.4089 70.9081 35.7156 69.4615C35.9809 68.5437 36.1258 67.575 36.1258 66.5723C36.1258 60.8968 31.5677 56.2727 25.9343 56.1902C25.453 53.6931 25.4724 51.097 26.0299 48.5411C26.8372 44.8408 28.7832 41.6739 30.8436 38.3213C32.9232 34.9372 35.0737 31.4378 36.165 27.1761C37.1796 23.2138 39.1009 20.3916 41.8752 18.788C42.7979 18.2546 43.8323 17.9879 44.867 17.9879C45.9012 17.9879 46.9359 18.2546 47.8584 18.7878C50.6329 20.3916 52.554 23.2138 53.5688 27.1761C53.8775 28.3814 54.2732 29.5239 54.7262 30.6217C54.4494 30.6203 54.1748 30.6228 53.9034 30.6331C47.9184 30.8598 42.9542 34.4681 40.6243 40.2851C36.98 49.3837 39.0022 60.1811 45.9019 68.4637C46.774 69.5104 47.6847 70.484 48.6284 71.3812C47.4925 71.6005 46.3285 71.7177 45.148 71.7273ZM77.91 65.0815C76.1842 67.153 74.3004 68.8734 72.3106 70.1951C71.447 70.7688 70.0024 71.7282 69.1245 71.7282C69.1233 71.7282 69.1221 71.7282 69.1209 71.7282C67.1121 71.7223 65.5494 70.773 65.3912 70.6735L63.9594 69.5986L62.4511 70.6716C62.3115 70.7599 60.741 71.7221 58.7183 71.7282C58.7171 71.7282 58.7159 71.7282 58.7146 71.7282C57.8366 71.7282 56.3921 70.7686 55.5285 70.1949C53.5387 68.8734 51.6548 67.1528 49.929 65.0815C44.2733 58.2921 42.5745 49.5445 45.4954 42.2521C47.0525 38.3642 50.1891 36.0494 54.1012 35.9012C55.3547 35.8535 56.7219 35.9782 58.4012 36.2935C58.8845 36.3843 59.4249 36.5391 59.9968 36.703C60.919 36.9672 61.9642 37.2667 63.0579 37.3688L63.1793 37.3802H64.6596L64.7809 37.3688C65.8748 37.2667 66.9199 36.9672 67.8422 36.703C68.4143 36.5391 68.9545 36.3843 69.4376 36.2935C71.1169 35.9783 72.4841 35.8537 73.7377 35.9012C77.6494 36.0495 80.7861 38.3642 82.3436 42.2521C85.2645 49.5445 83.5656 58.2921 77.91 65.0815Z" fill="white"/>
</svg>
