<svg width="80" height="78" viewBox="0 0 80 78" fill="none" xmlns="http://www.w3.org/2000/svg">
    <path d="M77.3745 14.166C76.9654 13.7671 76.5243 13.411 76.0542 13.0995C76.233 10.6673 75.305 8.22172 73.4362 6.39962C71.5674 4.57753 69.0593 3.67289 66.5646 3.84705C66.2451 3.38871 65.8799 2.95871 65.4707 2.55979C62.4358 -0.399011 57.6884 -0.843792 54.3507 1.49195C53.5717 1.97376 53.3487 2.79216 53.253 3.14339C53.1972 3.34833 51.2293 11.1904 50.5301 14.0284C48.4758 13.4338 46.3218 13.1251 44.1189 13.1251C38.1305 13.1251 32.5005 15.3989 28.266 19.5276L20.0283 27.5594C15.7939 31.688 13.4617 37.1772 13.4619 43.0159C13.4619 45.1638 13.7785 47.264 14.3883 49.2669C11.4777 49.9485 3.43441 51.8672 3.22422 51.9216C2.86383 52.015 2.02429 52.2324 1.53013 52.9922C-0.865499 56.2463 -0.409159 60.8748 2.62566 63.8339C3.0348 64.2328 3.47583 64.5889 3.94592 64.9004C3.76714 67.3326 4.69513 69.7782 6.56394 71.6003C8.43274 73.4224 10.9412 74.3272 13.4356 74.1528C13.755 74.6112 14.1203 75.0412 14.5294 75.4401C16.2629 77.1301 18.5549 78 20.8239 78C22.5274 78 24.2181 77.5097 25.6493 76.5079C26.4283 76.0261 26.6513 75.2077 26.747 74.8565C26.8028 74.6516 28.7708 66.8093 29.4699 63.9715C31.5242 64.5661 33.6782 64.8748 35.8811 64.8748C41.8695 64.8748 47.4995 62.6011 51.734 58.4723L59.9717 50.4405C64.2061 46.3119 66.5383 40.8227 66.5381 34.984C66.5381 32.8361 66.2215 30.7359 65.6117 28.733C68.5223 28.0514 76.5656 26.1327 76.7758 26.0782C77.1362 25.9849 77.9754 25.7675 78.4696 25.0079C80.8655 21.7538 80.4093 17.1249 77.3745 14.166ZM36.2276 19.4939C38.5485 18.3673 41.1123 17.7498 43.7727 17.7005V58.506C41.4518 59.6327 38.888 60.2502 36.2276 60.2996V19.4939ZM23.3435 30.7915L31.539 22.8009V59.7843C28.4639 59.0329 25.6433 57.4825 23.3435 55.2402C19.9946 51.9749 18.1503 47.6336 18.1503 43.0159C18.1503 38.3981 19.9947 34.0568 23.3435 30.7915ZM22.3693 73.1068C20.9329 73.7632 19.097 73.4288 17.8448 72.2078C17.4175 71.7912 17.0904 71.3068 16.8725 70.768L16.0691 68.7814L13.9817 69.4282C12.5918 69.8591 10.9818 69.4427 9.87944 68.3678C8.77703 67.293 8.35007 65.723 8.79188 64.3681L9.45529 62.3329L7.4177 61.5495C6.86509 61.337 6.36827 61.0182 5.94116 60.6016C4.68872 59.3805 4.34584 57.5907 5.01894 56.1902C6.7682 55.7591 11.1294 54.7305 16.2208 53.5387C17.2314 55.3276 18.5063 56.9882 20.0285 58.4725C21.5507 59.9566 23.254 61.1995 25.0885 62.1849C23.8664 67.1493 22.8114 71.4013 22.3693 73.1068ZM56.6568 47.2084L48.4613 55.199V18.2156C51.5366 18.967 54.357 20.5174 56.6568 22.7597C60.0058 26.025 61.85 30.3663 61.85 34.984C61.85 39.6018 60.0056 43.9431 56.6568 47.2084ZM74.9814 21.8098C73.232 22.2409 68.8713 23.2694 63.7795 24.4612C62.769 22.6723 61.494 21.0116 59.9718 19.5274C58.4497 18.0433 56.7464 16.8004 54.9118 15.815C56.1339 10.8508 57.1889 6.59863 57.6312 4.8931C59.0674 4.23682 60.9033 4.57113 62.1557 5.79211C62.583 6.2087 62.9101 6.6931 63.1279 7.23189L63.9314 9.21855L66.0188 8.57172C67.4085 8.14111 69.0186 8.55725 70.121 9.63209C71.2234 10.7069 71.6504 12.2769 71.2086 13.6318L70.5452 15.667L72.5828 16.4504C73.1354 16.6629 73.6322 16.9817 74.0593 17.3983C75.3116 18.6194 75.6545 20.4092 74.9814 21.8098Z" fill="white"/>
</svg>
