<svg width="70" height="78" viewBox="0 0 70 78" fill="none" xmlns="http://www.w3.org/2000/svg">
    <path d="M68.6346 54.8642L60.5108 50.2902L67.5508 46.2419C68.8493 45.4952 69.2813 43.8634 68.5156 42.5971C67.7499 41.3312 66.077 40.9099 64.7781 41.6562L55.0805 47.2328L40.4586 38.9998L55.0779 30.7683L64.7785 36.3441C65.2134 36.5943 65.6908 36.7129 66.1618 36.7129C67.0963 36.7129 68.0065 36.2444 68.5156 35.4022C69.2809 34.1359 68.8486 32.5041 67.5501 31.7574L60.509 27.7105L68.6346 23.1355C69.94 22.4005 70.3872 20.7726 69.6335 19.4996C68.8799 18.2262 67.2106 17.79 65.9052 18.5254L57.7815 23.0996L57.7076 15.1283C57.6941 13.6583 56.4575 12.4704 54.9538 12.4907C53.4465 12.5038 52.2353 13.7062 52.2492 15.1762L52.3507 26.1571L37.7296 34.3897V17.9259L47.5324 12.523C48.8447 11.7997 49.3073 10.176 48.5656 8.89589C47.8239 7.61613 46.1586 7.1647 44.8464 7.88833L37.7296 11.811V2.66174C37.7296 1.19175 36.5075 0 35.0002 0C33.4928 0 32.2708 1.19175 32.2708 2.66174V11.811L25.154 7.88869C23.841 7.16505 22.1768 7.61613 21.4348 8.89625C20.6931 10.176 21.1557 11.8 22.4679 12.5233L32.2704 17.9263V34.3897L17.6493 26.1571L17.7508 15.1762C17.7647 13.7062 16.5536 12.5038 15.0462 12.4907C15.0378 12.4907 15.0298 12.4907 15.0211 12.4907C13.5254 12.4907 12.3059 13.6664 12.2924 15.1286L12.2186 23.0996L4.09482 18.5254C2.78944 17.79 1.12015 18.2265 0.366479 19.4996C-0.387195 20.7726 0.06006 22.4005 1.36543 23.1355L9.49063 27.7105L2.44845 31.7581C1.14999 32.5045 0.71766 34.1363 1.48298 35.4029C1.9921 36.2451 2.90226 36.7136 3.83717 36.7136C4.30808 36.7136 4.78517 36.5947 5.22042 36.3448L14.9221 30.769L29.5418 39.0005L14.9196 47.2335L5.22042 41.6559C3.92269 40.9095 2.24866 41.3304 1.48298 42.5967C0.717297 43.863 1.14927 45.4948 2.44773 46.2412L9.48881 50.2899L1.36507 54.8638C0.0596963 55.5988 -0.387559 57.2267 0.366115 58.4997C0.871597 59.3536 1.78903 59.831 2.73231 59.831C3.19521 59.831 3.66467 59.716 4.09446 59.4739L12.2182 54.8996L12.2921 62.8714C12.3055 64.3332 13.525 65.5093 15.0207 65.5093C15.0291 65.5093 15.0375 65.5093 15.0458 65.509C16.5532 65.4958 17.7643 64.2935 17.7505 62.8235L17.6489 51.8422L32.2704 43.6096V60.0737L22.4679 65.4767C21.1557 66.2 20.6931 67.8236 21.4348 69.1038C21.9366 69.9697 22.8613 70.4563 23.8134 70.4563C24.2682 70.4563 24.7297 70.3452 25.154 70.1113L32.2708 66.189V75.3383C32.2708 76.8083 33.4928 78 35.0002 78C36.5075 78 37.7296 76.8083 37.7296 75.3383V66.189L44.8464 70.1113C45.2707 70.3452 45.7318 70.4563 46.187 70.4563C47.139 70.4563 48.0638 69.9697 48.5656 69.1038C49.3073 67.824 48.8447 66.2 47.5324 65.4767L37.7296 60.0737V43.61L52.3507 51.8422L52.2466 62.8231C52.2324 64.2931 53.4432 65.4958 54.9505 65.5093C54.9593 65.5097 54.9676 65.5097 54.9764 65.5097C56.4717 65.5097 57.6912 64.3339 57.705 62.8724L57.7807 54.8996L65.9056 59.4743C66.3354 59.7163 66.8048 59.8313 67.2677 59.8313C68.211 59.8313 69.1284 59.3536 69.6339 58.5001C70.3876 57.2271 69.9403 55.5991 68.6346 54.8642Z" fill="white"/>
</svg>
