<svg width="79" height="78" viewBox="0 0 79 78" fill="none" xmlns="http://www.w3.org/2000/svg">
    <path d="M39.5 0C17.7505 0 0 17.527 0 39C0 60.4742 17.7517 78 39.5 78C61.2497 78 79 60.473 79 39C79 17.5256 61.2483 0 39.5 0ZM39.5 73.4297C20.272 73.4297 4.62891 57.9846 4.62891 39C4.62891 20.0154 20.272 4.57031 39.5 4.57031C58.728 4.57031 74.3711 20.0154 74.3711 39C74.3711 57.9846 58.728 73.4297 39.5 73.4297Z" fill="white"/>
    <path d="M69.905 38.8393C69.905 34.7802 68.0416 31.0751 64.7521 28.5063C65.6631 20.0999 58.4605 13.0057 49.9595 13.9076C47.4203 10.7966 43.594 8.97137 39.5001 8.97137C35.4061 8.97137 31.5798 10.7966 29.0406 13.9075C20.5269 13.0042 13.3347 20.1143 14.2488 28.512C11.098 31.0192 9.24922 34.797 9.24922 38.8391C9.24922 42.8813 11.098 46.6591 14.2488 49.1662C13.3369 57.5443 20.5019 64.674 29.0392 63.7691C31.5785 66.881 35.4053 68.707 39.5001 68.707C43.5946 68.707 47.4217 66.881 49.9608 63.7693C58.4664 64.671 65.6628 57.5765 64.7521 49.1723C68.0417 46.6035 69.905 42.8983 69.905 38.8393ZM50.8177 18.4171C56.1812 18.046 60.8416 22.6445 60.1312 28.1665L44.5684 34.3214C44.4238 34.1689 44.2728 34.0226 44.1149 33.8837L50.8177 18.4171ZM39.5001 13.5417C42.2754 13.5417 44.7707 14.7545 46.4451 16.8888L39.8301 32.1529C39.7207 32.1477 39.6107 32.1445 39.5001 32.1445C39.4056 32.1445 39.312 32.1479 39.2183 32.1515L32.8764 16.4978C34.5406 14.6061 36.898 13.5417 39.5001 13.5417ZM41.8145 39C41.8145 40.26 40.7762 41.2852 39.5001 41.2852C38.2239 41.2852 37.1856 40.26 37.1856 39C37.1856 37.74 38.2239 36.7148 39.5001 36.7148C40.7762 36.7148 41.8145 37.74 41.8145 39ZM28.6897 18.4691L34.9219 33.8523C34.7628 33.9903 34.6104 34.1355 34.4647 34.2872L18.8164 27.6656C18.439 22.3697 23.0981 17.7683 28.6897 18.4691ZM16.8723 45.3789C14.9564 43.7359 13.8781 41.4084 13.8781 38.8393C13.8781 36.0992 15.1063 33.6358 17.2674 31.9827L32.5801 38.4622C32.5661 38.6399 32.5567 38.8189 32.5567 39C32.5567 39.0612 32.5598 39.1217 32.5613 39.1827L16.8723 45.3789ZM28.1835 59.2611C22.8295 59.6322 18.1577 55.0451 18.8687 49.5128L34.2236 43.4486C34.4019 43.6544 34.5917 43.8502 34.7931 44.0339L28.1835 59.2611ZM39.5001 64.1367C36.725 64.1367 34.23 62.9242 32.5556 60.7905L39.0455 45.8392C39.1959 45.8488 39.3471 45.8555 39.5001 45.8555C39.6377 45.8555 39.7741 45.8504 39.9097 45.8425L46.1236 61.1805C44.4595 63.0723 42.1021 64.1367 39.5001 64.1367ZM50.3104 59.2093L44.1748 44.0644C44.3777 43.8817 44.5682 43.6861 44.748 43.4812L60.1837 50.0128C60.5611 55.3078 55.903 59.9099 50.3104 59.2093ZM61.7355 45.6969L46.4377 39.2236C46.4402 39.1493 46.4434 39.075 46.4434 39C46.4434 38.8353 46.4354 38.6726 46.4238 38.5108L62.1353 32.2972C64.1448 33.9835 65.2761 36.3139 65.2761 38.8391C65.2763 41.5268 63.9931 43.9923 61.7355 45.6969Z" fill="white"/>
</svg>
