<svg width="78" height="78" viewBox="0 0 78 78" fill="none" xmlns="http://www.w3.org/2000/svg">
    <path d="M66.8573 33.4285V13.9285C66.8573 12.3899 65.6101 11.1427 64.0715 11.1427H44.5716C44.5716 4.98881 39.5828 0 33.4287 0C27.2746 0 22.2858 4.98881 22.2858 11.1429H2.78593C1.24737 11.1429 0.000163225 12.3901 0.000163225 13.9285V38.3814C0.000652901 39.9199 1.24818 41.1668 2.78658 41.1663C3.47458 41.1662 4.13809 40.9114 4.64947 40.4511C6.925 38.3797 10.4487 38.5453 12.52 40.8208C14.5914 43.0963 14.4259 46.62 12.1503 48.6913C10.0245 50.6265 6.77532 50.6265 4.64947 48.6913C3.50592 47.662 1.74455 47.7547 0.715253 48.8981C0.254958 49.4095 0.000163225 50.073 0 50.761V75.2141C0 76.7526 1.2472 77.9998 2.78577 77.9998H27.2387C28.7773 77.9995 30.0242 76.752 30.0237 75.2134C30.0235 74.5254 29.7687 73.8619 29.3084 73.3505C27.2371 71.075 27.4026 67.5513 29.6781 65.48C31.9536 63.4087 35.4774 63.5742 37.5487 65.8497C39.4839 67.9755 39.4839 71.2247 37.5487 73.3505C36.5194 74.4941 36.6121 76.2554 37.7555 77.2847C38.2669 77.745 38.9304 77.9998 39.6184 78H64.0713C65.6099 78 66.8571 76.7528 66.8571 75.2142V55.7141C73.0112 55.7141 78 50.7253 78 44.5712C78 38.4171 73.0113 33.4285 66.8573 33.4285ZM66.8573 50.1427C66.2233 50.1332 65.5957 50.0146 65.002 49.7918C63.552 49.2779 61.9597 50.0369 61.4459 51.487C61.3401 51.7852 61.2861 52.0995 61.2859 52.4158V72.4283H44.2094C44.4502 71.5193 44.5719 70.5829 44.5716 69.6425C44.5716 63.4885 39.5828 58.4997 33.4287 58.4997C27.2746 58.4997 22.2858 63.4885 22.2858 69.6425C22.2855 70.5829 22.4072 71.5193 22.648 72.4283H5.57153V55.352C6.48054 55.5928 7.41696 55.7146 8.3573 55.7142C14.5114 55.7142 19.5002 50.7254 19.5002 44.5714C19.5002 38.4173 14.5114 33.4285 8.3573 33.4285C7.41696 33.4282 6.48054 33.5499 5.57153 33.7907V16.7142H25.5841C27.1227 16.7134 28.3691 15.4654 28.3682 13.927C28.3681 13.6105 28.3139 13.2965 28.2083 12.9981C27.9855 12.4044 27.8666 11.7768 27.8573 11.1429C27.8573 8.06593 30.3518 5.57152 33.4287 5.57152C36.5057 5.57152 39.0001 8.06593 39.0001 11.1429C38.9906 11.7768 38.872 12.4044 38.6492 12.9981C38.1353 14.4482 38.8943 16.0404 40.3444 16.5543C40.6426 16.66 40.9568 16.7141 41.2732 16.7142H61.2857V36.7268C61.2865 38.2653 62.5346 39.5117 64.073 39.5109C64.3895 39.5107 64.7035 39.4565 65.0017 39.3509C65.5954 39.1281 66.223 39.0093 66.8569 39C69.9339 39 72.4283 41.4944 72.4283 44.5714C72.4283 47.6483 69.9342 50.1427 66.8573 50.1427Z" fill="white"/>
</svg>
