<svg width="180" height="52" viewBox="0 0 180 52" fill="none" xmlns="http://www.w3.org/2000/svg">
    <path d="M173.095 52H6.6575C2.99754 52 0 49.0734 0 45.5V6.5C0 2.92663 2.99754 2.74817e-06 6.6575 2.74817e-06H173.095C176.755 2.74817e-06 179.753 2.92663 179.753 6.5V45.5C179.753 49.0734 176.755 52 173.095 52Z" fill="black"/>
    <path d="M17.7107 38.0918C17.8044 38.0918 17.903 38.0918 18.0214 38.0918C18.0214 35.3597 18.0214 32.6671 18.0214 29.9449C18.1397 29.9449 18.2384 29.9449 18.3321 29.9449C19.4959 29.9449 20.6647 29.94 21.8285 29.9449C22.8247 29.9499 23.811 29.866 24.7825 29.6342C24.9501 29.5948 25.0882 29.5553 25.1573 29.3482C26.3803 25.5559 27.6132 21.7636 28.846 17.9762C28.8953 17.8184 28.8855 17.7049 28.7918 17.5668C28.2542 16.7975 27.6082 16.1466 26.8093 15.6436C25.3841 14.7411 23.7962 14.4107 22.1392 14.4008C18.7611 14.3712 15.383 14.386 12 14.386C12 22.2912 12 30.2014 12 38.1066C12.0986 38.1016 12.1973 38.0918 12.2959 38.0918C14.1008 38.0918 15.9058 38.0918 17.7107 38.0918ZM18.0263 19.0167C18.051 19.0068 18.0707 18.9871 18.0953 18.9871C19.1852 19.0068 20.28 18.9674 21.3649 19.071C23.0614 19.2288 23.9836 20.289 24.0329 21.9953C24.0526 22.7203 23.9441 23.4156 23.5644 24.0518C23.1008 24.826 22.3611 25.1712 21.5227 25.2551C20.6203 25.3438 19.7079 25.334 18.7956 25.3636C18.549 25.3734 18.3025 25.3636 18.0263 25.3636C18.0263 23.2282 18.0263 21.1225 18.0263 19.0167Z" fill="white"/>
    <path d="M67.0652 18.3557C66.7348 17.4828 66.4044 16.6099 66.069 15.7124C66.0345 15.7814 66.0099 15.8209 65.9901 15.8653C64.994 18.3803 63.9978 20.8905 63.0115 23.4056C62.972 23.5042 62.9819 23.6472 63.0164 23.7508C63.7808 25.9108 64.5551 28.0708 65.3293 30.2308C65.3638 30.3195 65.3885 30.4132 65.4279 30.5365C65.3096 30.5365 65.2208 30.5365 65.132 30.5365C63.5638 30.5365 61.9956 30.5414 60.4274 30.5316C60.24 30.5316 60.1562 30.5908 60.092 30.7584C59.5545 32.1343 59.012 33.5003 58.4696 34.8713C58.44 34.9502 58.4203 35.0291 58.3857 35.1376C58.5189 35.1376 58.6077 35.1376 58.7014 35.1376C60.2301 35.1376 61.754 35.1376 63.2827 35.1376C64.4071 35.1376 65.5315 35.1376 66.6559 35.1376C66.7792 35.1376 66.8877 35.1228 66.9419 35.2856C67.4252 36.6516 67.9134 38.0176 68.4016 39.3787C70.6011 39.3787 72.8005 39.3787 75 39.3787C74.9704 39.3097 74.9359 39.2456 74.9112 39.1765C72.2975 32.2428 69.6838 25.2993 67.0652 18.3557Z" fill="white"/>
    <path d="M56.2155 14.3809C56.0133 14.3809 55.9344 14.4548 55.8604 14.6225C53.7892 19.485 51.713 24.3425 49.6418 29.2C49.5777 29.348 49.5135 29.4959 49.4248 29.7031C49.3804 29.565 49.3557 29.491 49.336 29.422C47.8418 24.4954 46.3426 19.5639 44.8533 14.6373C44.7941 14.4548 44.725 14.3809 44.5179 14.3809C43.0631 14.3907 41.6133 14.3858 40.1585 14.3858C40.0796 14.3858 39.9957 14.3858 39.902 14.3858C38.2401 19.48 36.5831 24.5644 34.9064 29.708C33.7179 27.3507 32.564 25.0674 31.3903 22.7447C31.3557 22.8335 31.3311 22.8778 31.3163 22.9321C30.2955 26.0685 29.2746 29.2099 28.2637 32.3513C28.2292 32.4647 28.2538 32.6274 28.3179 32.731C29.3092 34.4472 30.3152 36.1584 31.3064 37.8746C31.4001 38.0422 31.5086 38.0915 31.696 38.0915C33.5946 38.0866 35.4883 38.0817 37.387 38.0915C37.6089 38.0915 37.6977 38.0225 37.7618 37.8203C38.9946 34.0428 40.2324 30.2702 41.4752 26.4976C41.702 25.8022 41.9338 25.1069 42.1804 24.3524C42.2297 24.5003 42.2642 24.5891 42.2938 24.6828C43.6648 29.057 45.0357 33.4362 46.4018 37.8104C46.4659 38.0126 46.5448 38.0915 46.7716 38.0866C48.6703 38.0767 50.564 38.0767 52.4626 38.0866C52.6796 38.0866 52.7733 38.0225 52.8522 37.8252C55.7223 30.6894 58.6023 23.5535 61.4823 16.4126C61.7535 15.7469 62.0198 15.0811 62.296 14.3858C62.1875 14.3858 62.1037 14.3858 62.0248 14.3858C60.0916 14.3858 58.1535 14.3907 56.2155 14.3809Z" fill="#570FC2"/>
    <path d="M95 29.0513V22.1488H97.9494C98.8185 22.1488 99.5095 22.3591 100.022 22.7799C100.535 23.2006 100.792 23.7659 100.792 24.4759C100.792 25.2188 100.507 25.7973 99.937 26.2114C99.3742 26.6256 98.6618 26.8326 97.7998 26.8326H96.3144V29.0513H95ZM96.3144 25.7381H97.8425C98.3341 25.7381 98.7259 25.6231 99.018 25.393C99.3101 25.1629 99.4561 24.8605 99.4561 24.4858C99.4561 24.0913 99.3101 23.7889 99.018 23.5786C98.733 23.3616 98.3412 23.2532 97.8425 23.2532H96.3144V25.7381Z" fill="white"/>
    <path d="M101.988 29.0513V23.8448H103.281V25.0183C103.68 24.1308 104.346 23.7068 105.28 23.7462V25.0084H105.205C104.621 25.0084 104.154 25.1859 103.805 25.5409C103.456 25.8893 103.281 26.3988 103.281 27.0693V29.0513H101.988Z" fill="white"/>
    <path d="M108.897 29.1697C108.042 29.1697 107.33 28.9067 106.76 28.3808C106.19 27.8549 105.905 27.2139 105.905 26.4579C105.905 25.7019 106.193 25.061 106.771 24.5351C107.348 24.0026 108.064 23.7364 108.918 23.7364C109.773 23.7364 110.486 23.9993 111.056 24.5252C111.633 25.0511 111.921 25.6954 111.921 26.4579C111.921 27.2074 111.633 27.8483 111.056 28.3808C110.479 28.9067 109.759 29.1697 108.897 29.1697ZM108.918 28.1343C109.431 28.1343 109.845 27.9732 110.158 27.6511C110.471 27.329 110.628 26.9313 110.628 26.4579C110.628 25.9912 110.464 25.5968 110.137 25.2746C109.809 24.9459 109.396 24.7816 108.897 24.7816C108.391 24.7816 107.982 24.9427 107.668 25.2648C107.355 25.5869 107.198 25.9846 107.198 26.4579C107.198 26.9181 107.362 27.3125 107.69 27.6412C108.017 27.9699 108.427 28.1343 108.918 28.1343Z" fill="white"/>
    <path d="M115.749 30.6488C114.809 30.6488 113.968 30.4417 113.227 30.0275L113.708 29.1302C114.349 29.4983 115.019 29.6824 115.717 29.6824C116.294 29.6824 116.736 29.5444 117.042 29.2683C117.349 28.9987 117.502 28.6043 117.502 28.085V27.6807C116.968 28.3183 116.305 28.6372 115.514 28.6372C114.816 28.6372 114.214 28.4137 113.708 27.9666C113.202 27.5196 112.95 26.9247 112.95 26.1818C112.95 25.4456 113.202 24.8539 113.708 24.4069C114.221 23.9599 114.823 23.7364 115.514 23.7364C116.298 23.7364 116.957 24.0322 117.491 24.6238V23.8448H118.784V27.9864C118.784 28.8541 118.545 29.5082 118.068 29.9487C117.562 30.4154 116.789 30.6488 115.749 30.6488ZM115.856 27.6314C116.312 27.6314 116.7 27.4966 117.021 27.2271C117.349 26.951 117.513 26.6026 117.513 26.1818C117.513 25.7611 117.349 25.416 117.021 25.1465C116.7 24.8769 116.312 24.7422 115.856 24.7422C115.4 24.7422 115.019 24.8769 114.713 25.1465C114.406 25.4094 114.253 25.7578 114.253 26.1917C114.253 26.6124 114.406 26.9575 114.713 27.2271C115.026 27.4966 115.407 27.6314 115.856 27.6314Z" fill="white"/>
    <path d="M120.397 29.0513V23.8448H121.69V25.0183C122.089 24.1308 122.755 23.7068 123.688 23.7462V25.0084H123.613C123.029 25.0084 122.563 25.1859 122.214 25.5409C121.864 25.8893 121.69 26.3988 121.69 27.0693V29.0513H120.397Z" fill="white"/>
    <path d="M127.209 29.1697C126.383 29.1697 125.692 28.9166 125.136 28.4104C124.588 27.9042 124.313 27.2501 124.313 26.4481C124.313 25.6921 124.574 25.0511 125.094 24.5252C125.614 23.9993 126.273 23.7364 127.07 23.7364C127.925 23.7364 128.588 24.0059 129.058 24.5449C129.535 25.0774 129.774 25.7414 129.774 26.5368C129.774 26.6814 129.767 26.7932 129.753 26.8721H125.606C125.678 27.2862 125.859 27.6116 126.151 27.8483C126.444 28.0784 126.803 28.1934 127.231 28.1934C127.786 28.1934 128.296 27.9864 128.759 27.5722L129.518 28.1934C128.933 28.8442 128.164 29.1697 127.209 29.1697ZM125.596 26.0832H128.492C128.449 25.6822 128.303 25.3535 128.054 25.0971C127.804 24.8408 127.473 24.7126 127.06 24.7126C126.668 24.7126 126.34 24.8408 126.077 25.0971C125.813 25.347 125.653 25.6756 125.596 26.0832Z" fill="white"/>
    <path d="M133.007 29.1499C132.123 29.1499 131.326 28.8903 130.613 28.3709L131.19 27.5623C131.803 27.9896 132.419 28.2033 133.039 28.2033C133.317 28.2033 133.53 28.154 133.68 28.0554C133.837 27.9502 133.915 27.8056 133.915 27.6215C133.915 27.5295 133.887 27.4506 133.83 27.3849C133.78 27.3125 133.687 27.2468 133.552 27.1876C133.416 27.1285 133.302 27.0857 133.21 27.0594C133.117 27.0331 132.964 26.9904 132.75 26.9313L132.654 26.9017C132.455 26.8491 132.284 26.7998 132.141 26.7538C132.006 26.7012 131.853 26.6321 131.682 26.5467C131.511 26.4612 131.372 26.3692 131.265 26.2706C131.158 26.1654 131.069 26.0339 130.998 25.8761C130.927 25.7184 130.891 25.5409 130.891 25.3437C130.891 24.8638 131.08 24.4792 131.457 24.19C131.842 23.9007 132.323 23.7561 132.9 23.7561C133.634 23.7561 134.325 23.9533 134.973 24.3477L134.46 25.1958C133.876 24.8671 133.345 24.7027 132.868 24.7027C132.619 24.7027 132.423 24.752 132.28 24.8506C132.145 24.9492 132.077 25.0807 132.077 25.2451C132.077 25.3568 132.138 25.4587 132.259 25.5507C132.387 25.6428 132.512 25.7118 132.633 25.7578C132.761 25.7973 132.964 25.8597 133.242 25.9452C133.256 25.9517 133.274 25.9583 133.295 25.9649C133.317 25.9715 133.335 25.9748 133.349 25.9748C133.598 26.0471 133.808 26.1194 133.979 26.1917C134.15 26.2574 134.328 26.3495 134.514 26.4678C134.706 26.5861 134.852 26.734 134.952 26.9115C135.051 27.0825 135.101 27.283 135.101 27.513C135.101 28.0389 134.905 28.4432 134.514 28.7259C134.122 29.0086 133.619 29.1499 133.007 29.1499Z" fill="white"/>
    <path d="M138.246 29.1499C137.362 29.1499 136.564 28.8903 135.852 28.3709L136.429 27.5623C137.042 27.9896 137.658 28.2033 138.278 28.2033C138.555 28.2033 138.769 28.154 138.919 28.0554C139.075 27.9502 139.154 27.8056 139.154 27.6215C139.154 27.5295 139.125 27.4506 139.068 27.3849C139.018 27.3125 138.926 27.2468 138.791 27.1876C138.655 27.1285 138.541 27.0857 138.449 27.0594C138.356 27.0331 138.203 26.9904 137.989 26.9313L137.893 26.9017C137.693 26.8491 137.522 26.7998 137.38 26.7538C137.245 26.7012 137.091 26.6321 136.92 26.5467C136.749 26.4612 136.611 26.3692 136.504 26.2706C136.397 26.1654 136.308 26.0339 136.237 25.8761C136.165 25.7184 136.13 25.5409 136.13 25.3437C136.13 24.8638 136.318 24.4792 136.696 24.19C137.081 23.9007 137.562 23.7561 138.139 23.7561C138.872 23.7561 139.563 23.9533 140.212 24.3477L139.699 25.1958C139.115 24.8671 138.584 24.7027 138.107 24.7027C137.857 24.7027 137.661 24.752 137.519 24.8506C137.384 24.9492 137.316 25.0807 137.316 25.2451C137.316 25.3568 137.376 25.4587 137.497 25.5507C137.626 25.6428 137.75 25.7118 137.872 25.7578C138 25.7973 138.203 25.8597 138.481 25.9452C138.495 25.9517 138.513 25.9583 138.534 25.9649C138.555 25.9715 138.573 25.9748 138.587 25.9748C138.837 26.0471 139.047 26.1194 139.218 26.1917C139.389 26.2574 139.567 26.3495 139.752 26.4678C139.945 26.5861 140.091 26.734 140.19 26.9115C140.29 27.0825 140.34 27.283 140.34 27.513C140.34 28.0389 140.144 28.4432 139.752 28.7259C139.36 29.0086 138.858 29.1499 138.246 29.1499Z" fill="white"/>
    <path d="M141.676 23.0461V21.9121H143.065V23.0461H141.676ZM141.729 29.0513V23.8448H143.022V29.0513H141.729Z" fill="white"/>
    <path d="M146.497 29.0908L144.178 23.8448H145.567L147.084 27.6708L148.612 23.8448H149.97L147.661 29.0908H146.497Z" fill="white"/>
    <path d="M153.33 29.1697C152.504 29.1697 151.812 28.9166 151.257 28.4104C150.708 27.9042 150.434 27.2501 150.434 26.4481C150.434 25.6921 150.694 25.0511 151.214 24.5252C151.734 23.9993 152.393 23.7364 153.191 23.7364C154.046 23.7364 154.708 24.0059 155.179 24.5449C155.656 25.0774 155.895 25.7414 155.895 26.5368C155.895 26.6814 155.887 26.7932 155.873 26.8721H151.727C151.798 27.2862 151.98 27.6116 152.272 27.8483C152.564 28.0784 152.924 28.1934 153.351 28.1934C153.907 28.1934 154.416 27.9864 154.879 27.5722L155.638 28.1934C155.054 28.8442 154.285 29.1697 153.33 29.1697ZM151.716 26.0832H154.612C154.57 25.6822 154.423 25.3535 154.174 25.0971C153.925 24.8408 153.594 24.7126 153.18 24.7126C152.788 24.7126 152.461 24.8408 152.197 25.0971C151.934 25.347 151.773 25.6756 151.716 26.0832Z" fill="white"/>
    <path d="M96.7821 37.9103L95 33.3539H95.9714L97.1911 36.7082L98.4474 33.3409H99.207L100.463 36.7082L101.683 33.3539H102.625L100.843 37.9103H100.069L98.8126 34.6594L97.5563 37.9103H96.7821Z" fill="white"/>
    <path d="M104.734 37.9556C104.169 37.9556 103.697 37.7897 103.317 37.4579C102.942 37.1261 102.755 36.6974 102.755 36.1718C102.755 35.6763 102.933 35.2562 103.288 34.9115C103.644 34.5668 104.094 34.3944 104.639 34.3944C105.224 34.3944 105.676 34.5711 105.998 34.9244C106.324 35.2734 106.487 35.7086 106.487 36.2299C106.487 36.3247 106.482 36.398 106.473 36.4497H103.639C103.687 36.7211 103.812 36.9344 104.011 37.0895C104.211 37.2403 104.457 37.3157 104.749 37.3157C105.129 37.3157 105.477 37.18 105.793 36.9086L106.312 37.3157C105.913 37.7423 105.387 37.9556 104.734 37.9556ZM103.631 35.9326H105.611C105.582 35.6698 105.482 35.4544 105.311 35.2863C105.141 35.1183 104.914 35.0343 104.632 35.0343C104.364 35.0343 104.14 35.1183 103.96 35.2863C103.78 35.4501 103.67 35.6655 103.631 35.9326Z" fill="white"/>
    <path d="M109.566 37.9491C109.035 37.9491 108.599 37.7488 108.258 37.348V37.878H107.375V33.16H108.258V35.0343C108.599 34.6077 109.035 34.3944 109.566 34.3944C110.053 34.3944 110.474 34.556 110.829 34.8792C111.185 35.198 111.363 35.631 111.363 36.1782C111.363 36.7168 111.185 37.1477 110.829 37.4708C110.474 37.7897 110.053 37.9491 109.566 37.9491ZM109.361 37.2705C109.673 37.2705 109.933 37.1692 110.143 36.9667C110.357 36.7642 110.464 36.4971 110.464 36.1653C110.464 35.8422 110.357 35.5793 110.143 35.3768C109.929 35.1743 109.668 35.073 109.361 35.073C109.055 35.073 108.789 35.1765 108.565 35.3833C108.346 35.5901 108.237 35.8551 108.237 36.1782C108.237 36.4971 108.346 36.7599 108.565 36.9667C108.789 37.1692 109.055 37.2705 109.361 37.2705Z" fill="white"/>
    <path d="M114.121 37.878L116.371 33.3216H117.204L119.453 37.878H118.504L117.985 36.7858H115.567L115.042 37.878H114.121ZM115.896 36.0813H117.656L116.773 34.2716L115.896 36.0813Z" fill="white"/>
    <path d="M120.228 38.9121V34.4655H121.111V35.0343C121.452 34.6077 121.888 34.3944 122.419 34.3944C122.906 34.3944 123.327 34.556 123.682 34.8792C124.038 35.198 124.215 35.631 124.215 36.1782C124.215 36.7168 124.038 37.1477 123.682 37.4708C123.327 37.7897 122.906 37.9491 122.419 37.9491C121.888 37.9491 121.452 37.7488 121.111 37.348V38.9121H120.228ZM122.214 37.2705C122.526 37.2705 122.786 37.1692 122.996 36.9667C123.21 36.7642 123.317 36.4971 123.317 36.1653C123.317 35.8422 123.21 35.5793 122.996 35.3768C122.781 35.1743 122.521 35.073 122.214 35.073C121.907 35.073 121.642 35.1765 121.418 35.3833C121.199 35.5901 121.089 35.8551 121.089 36.1782C121.089 36.4971 121.199 36.7599 121.418 36.9667C121.642 37.1692 121.907 37.2705 122.214 37.2705Z" fill="white"/>
    <path d="M125.12 38.9121V34.4655H126.004V35.0343C126.345 34.6077 126.781 34.3944 127.312 34.3944C127.799 34.3944 128.22 34.556 128.575 34.8792C128.931 35.198 129.108 35.631 129.108 36.1782C129.108 36.7168 128.931 37.1477 128.575 37.4708C128.22 37.7897 127.799 37.9491 127.312 37.9491C126.781 37.9491 126.345 37.7488 126.004 37.348V38.9121H125.12ZM127.107 37.2705C127.419 37.2705 127.679 37.1692 127.889 36.9667C128.103 36.7642 128.21 36.4971 128.21 36.1653C128.21 35.8422 128.103 35.5793 127.889 35.3768C127.674 35.1743 127.414 35.073 127.107 35.073C126.8 35.073 126.535 35.1765 126.311 35.3833C126.092 35.5901 125.982 35.8551 125.982 36.1782C125.982 36.4971 126.092 36.7599 126.311 36.9667C126.535 37.1692 126.8 37.2705 127.107 37.2705Z" fill="white"/>
    <path d="M130.065 37.878V33.16H130.948V37.878H130.065Z" fill="white"/>
    <path d="M132.118 33.942V33.1988H133.067V33.942H132.118ZM132.154 37.878V34.4655H133.038V37.878H132.154Z" fill="white"/>
    <path d="M135.975 37.9556C135.406 37.9556 134.931 37.7832 134.551 37.4385C134.171 37.0938 133.981 36.6737 133.981 36.1782C133.981 35.687 134.171 35.2669 134.551 34.9179C134.936 34.5689 135.413 34.3944 135.983 34.3944C136.606 34.3944 137.119 34.5905 137.524 34.9826L136.976 35.5061C136.669 35.2217 136.336 35.0795 135.975 35.0795C135.659 35.0795 135.393 35.1872 135.179 35.4027C134.97 35.6138 134.865 35.8723 134.865 36.1782C134.865 36.4885 134.972 36.7491 135.186 36.9603C135.406 37.1714 135.683 37.277 136.019 37.277C136.374 37.277 136.708 37.1348 137.02 36.8504L137.553 37.3157C137.343 37.5225 137.115 37.682 136.866 37.794C136.623 37.9017 136.326 37.9556 135.975 37.9556Z" fill="white"/>
    <path d="M141.601 37.878H140.725V37.4579C140.413 37.7854 139.997 37.9491 139.476 37.9491C139.091 37.9491 138.765 37.8565 138.497 37.6712C138.234 37.4816 138.103 37.2188 138.103 36.8827C138.103 36.5165 138.246 36.2386 138.534 36.049C138.821 35.8594 139.198 35.7646 139.666 35.7646C140.041 35.7646 140.396 35.812 140.732 35.9068V35.8422C140.732 35.6052 140.649 35.4242 140.484 35.2993C140.323 35.1743 140.089 35.1118 139.783 35.1118C139.432 35.1118 139.064 35.1829 138.68 35.3251L138.439 34.6982C138.916 34.5086 139.405 34.4138 139.907 34.4138C140.467 34.4138 140.888 34.5388 141.17 34.7887C141.458 35.0386 141.601 35.394 141.601 35.8551V37.878ZM140.747 36.6436V36.4497C140.484 36.3592 140.189 36.314 139.863 36.314C139.585 36.314 139.369 36.3614 139.213 36.4561C139.057 36.5509 138.979 36.6845 138.979 36.8569C138.979 37.012 139.05 37.1348 139.191 37.2252C139.332 37.3157 139.51 37.361 139.724 37.361C140.021 37.361 140.265 37.2942 140.455 37.1606C140.649 37.027 140.747 36.8547 140.747 36.6436Z" fill="white"/>
    <path d="M143.945 37.9362C143.205 37.9362 142.835 37.6023 142.835 36.9344V35.1377H142.346V34.4655H142.835V33.5284H143.719V34.4655H144.756V35.1377H143.719V36.8116C143.719 37.096 143.877 37.2382 144.193 37.2382C144.383 37.2382 144.566 37.1994 144.741 37.1218V37.7617C144.507 37.878 144.242 37.9362 143.945 37.9362Z" fill="white"/>
    <path d="M145.663 33.942V33.1988H146.612V33.942H145.663ZM145.699 37.878V34.4655H146.583V37.878H145.699Z" fill="white"/>
    <path d="M149.571 37.9556C148.987 37.9556 148.5 37.7832 148.11 37.4385C147.721 37.0938 147.526 36.6737 147.526 36.1782C147.526 35.6827 147.723 35.2626 148.118 34.9179C148.512 34.5689 149.001 34.3944 149.586 34.3944C150.17 34.3944 150.657 34.5668 151.046 34.9115C151.441 35.2562 151.638 35.6784 151.638 36.1782C151.638 36.6694 151.441 37.0895 151.046 37.4385C150.652 37.7832 150.16 37.9556 149.571 37.9556ZM149.586 37.277C149.936 37.277 150.219 37.1714 150.433 36.9603C150.647 36.7491 150.754 36.4885 150.754 36.1782C150.754 35.8723 150.642 35.6138 150.418 35.4027C150.194 35.1872 149.912 35.0795 149.571 35.0795C149.225 35.0795 148.945 35.1851 148.731 35.3962C148.517 35.6073 148.41 35.868 148.41 36.1782C148.41 36.4798 148.522 36.7384 148.746 36.9538C148.97 37.1692 149.25 37.277 149.586 37.277Z" fill="white"/>
    <path d="M152.538 37.878V34.4655H153.422V34.9955C153.729 34.5948 154.13 34.3944 154.627 34.3944C155.055 34.3944 155.391 34.5129 155.635 34.7499C155.878 34.9869 156 35.3057 156 35.7064V37.878H155.116V35.9391C155.116 35.672 155.043 35.4673 154.897 35.3251C154.756 35.1786 154.554 35.1054 154.291 35.1054C154.033 35.1054 153.823 35.1808 153.663 35.3316C153.502 35.4824 153.422 35.6892 153.422 35.952V37.878H152.538Z" fill="white"/>
    <path d="M100.891 15.708C100.02 16.5994 98.9182 17.0451 97.5863 17.0451C96.2544 17.0451 95.157 16.6036 94.2942 15.7206C93.4314 14.8376 93 13.7569 93 12.4786C93 11.2172 93.4356 10.1407 94.3068 9.24927C95.178 8.35783 96.2795 7.91211 97.6114 7.91211C98.9433 7.91211 100.041 8.35362 100.904 9.23665C101.766 10.1197 102.198 11.2003 102.198 12.4786C102.198 13.7401 101.762 14.8165 100.891 15.708ZM95.4628 14.7114C96.0324 15.3169 96.7486 15.6197 97.6114 15.6197C98.4742 15.6197 99.1821 15.3169 99.7349 14.7114C100.296 14.1059 100.577 13.3617 100.577 12.4786C100.577 11.604 100.292 10.8639 99.7224 10.2584C99.1611 9.64452 98.4491 9.33757 97.5863 9.33757C96.7235 9.33757 96.0115 9.64032 95.4502 10.2458C94.8973 10.8513 94.6209 11.5956 94.6209 12.4786C94.6209 13.3532 94.9015 14.0975 95.4628 14.7114Z" fill="white"/>
    <path d="M105.309 16.8938V11.5451H103.173V10.2332H108.978V11.5451H106.842V16.8938H105.309Z" fill="white"/>
    <path d="M110.184 16.8938V10.2332H111.692V13.4247L114.582 10.2332H116.366L113.79 13.0337L116.58 16.8938H114.783L112.772 14.1438L111.692 15.2917V16.8938H110.184Z" fill="white"/>
    <path d="M117.632 18.9121V10.2332H119.153V11.3433C119.739 10.5107 120.489 10.0944 121.402 10.0944C122.24 10.0944 122.964 10.4098 123.576 11.0405C124.187 11.6629 124.493 12.5081 124.493 13.5761C124.493 14.6273 124.187 15.4683 123.576 16.099C122.964 16.7214 122.24 17.0325 121.402 17.0325C120.489 17.0325 119.739 16.6415 119.153 15.8594V18.9121H117.632ZM121.05 15.708C121.586 15.708 122.034 15.5104 122.395 15.1151C122.763 14.7198 122.947 14.1984 122.947 13.5509C122.947 12.9201 122.763 12.4071 122.395 12.0119C122.026 11.6166 121.578 11.419 121.05 11.419C120.522 11.419 120.066 11.6208 119.68 12.0245C119.303 12.4282 119.115 12.9454 119.115 13.5761C119.115 14.1984 119.303 14.7114 119.68 15.1151C120.066 15.5104 120.522 15.708 121.05 15.708Z" fill="white"/>
    <path d="M126.05 16.8938V10.2332H127.57V12.5669H128.965C129.753 12.5669 130.389 12.7435 130.875 13.0967C131.361 13.45 131.604 13.9756 131.604 14.6736C131.604 15.3632 131.378 15.9056 130.925 16.3009C130.473 16.6961 129.857 16.8938 129.078 16.8938H126.05ZM127.57 15.6575H128.877C129.263 15.6575 129.56 15.5734 129.769 15.4052C129.979 15.237 130.083 14.9931 130.083 14.6736C130.083 14.3792 129.975 14.1522 129.757 13.9924C129.547 13.8326 129.246 13.7527 128.852 13.7527H127.57V15.6575ZM132.609 16.8938V10.2332H134.129V16.8938H132.609Z" fill="white"/>
    <path d="M137.458 16.8938V11.5451H135.322V10.2332H141.127V11.5451H138.991V16.8938H137.458Z" fill="white"/>
    <path d="M142.333 16.8938V10.2332H143.854V12.5669H145.374C146.161 12.5669 146.798 12.7435 147.284 13.0967C147.77 13.45 148.013 13.9756 148.013 14.6736C148.013 15.3632 147.787 15.9056 147.334 16.3009C146.882 16.6961 146.266 16.8938 145.487 16.8938H142.333ZM143.854 15.6575H145.286C145.671 15.6575 145.969 15.5734 146.178 15.4052C146.388 15.237 146.492 14.9931 146.492 14.6736C146.492 14.3792 146.383 14.1522 146.166 13.9924C145.956 13.8326 145.655 13.7527 145.261 13.7527H143.854V15.6575Z" fill="white"/>
    <path d="M153.107 16.8938V10.2332H156.512C157.174 10.2332 157.702 10.3846 158.095 10.6873C158.497 10.9817 158.698 11.3854 158.698 11.8983C158.698 12.5964 158.342 13.1052 157.63 13.4247C158.543 13.6854 159 14.2405 159 15.0899C159 15.6533 158.778 16.0948 158.334 16.4144C157.898 16.734 157.304 16.8938 156.55 16.8938H153.107ZM154.602 15.6828H156.324C156.684 15.6828 156.96 15.6071 157.153 15.4557C157.354 15.2959 157.454 15.0857 157.454 14.825C157.454 14.5727 157.35 14.375 157.14 14.2321C156.939 14.0891 156.642 14.0176 156.248 14.0176H154.602V15.6828ZM154.602 12.9832H156.16C156.47 12.9832 156.713 12.9075 156.889 12.7561C157.065 12.6048 157.153 12.4071 157.153 12.1633C157.153 11.9362 157.073 11.7554 156.914 11.6208C156.755 11.4779 156.512 11.4064 156.185 11.4064H154.602V12.9832Z" fill="white"/>
</svg>
