<svg xmlns="http://www.w3.org/2000/svg" display="none">

    <symbol id="user" viewBox="0 0 21 25">
        <path d="M10.5016 0C7.15008 0 4.41037 2.91949 4.41037 6.49094C4.41037 10.0624 7.15008 12.9819 10.5016 12.9819C13.8531 12.9819 16.5928 10.0624 16.5928 6.49094C16.5928 2.91949 13.8531 0 10.5016 0Z"/>
        <path d="M20.9551 18.1689C20.7955 17.7438 20.5827 17.347 20.3434 16.9785C19.1198 15.051 17.2313 13.7755 15.1033 13.4637C14.8374 13.4354 14.5448 13.492 14.332 13.6621C13.2148 14.5408 11.8848 14.9943 10.5016 14.9943C9.11845 14.9943 7.78852 14.5408 6.67134 13.6621C6.45853 13.492 6.16593 13.407 5.89997 13.4637C3.77202 13.7755 1.8569 15.051 0.659943 16.9785C0.420552 17.347 0.207737 17.7721 0.0481773 18.1689C-0.0316027 18.339 -0.00502637 18.5374 0.0747536 18.7075C0.287568 19.1043 0.553535 19.5012 0.792926 19.8413C1.1653 20.3799 1.5643 20.8617 2.01651 21.3152C2.38888 21.712 2.81446 22.0805 3.24009 22.449C5.3414 24.1214 7.86835 25 10.4751 25C13.0818 25 15.6087 24.1213 17.7101 22.449C18.1356 22.1089 18.5612 21.712 18.9336 21.3152C19.3592 20.8617 19.7848 20.3798 20.1572 19.8413C20.4232 19.4728 20.6626 19.1043 20.8754 18.7075C21.0083 18.5374 21.0349 18.339 20.9551 18.1689Z"/>
    </symbol>

    <symbol id="vk" viewBox="0 0 44 26">
        <path d="M36.5121 14.9091C35.8007 13.9991 36.0042 13.5943 36.5121 12.7809C36.5213 12.7716 42.3936 4.55186 42.9987 1.76429L43.0023 1.76243C43.303 0.746571 43.0023 0 41.5484 0H36.7376C35.5129 0 34.9482 0.640714 34.6457 1.35757C34.6457 1.35757 32.1963 7.29671 28.7312 11.1466C27.6128 12.259 27.0958 12.6156 26.4853 12.6156C26.1846 12.6156 25.7171 12.259 25.7171 11.2431V1.76243C25.7171 0.544143 25.3742 0 24.3603 0H16.7957C16.0276 0 15.571 0.568286 15.571 1.09757C15.571 2.25271 17.3036 2.51829 17.4833 5.76829V12.8199C17.4833 14.365 17.2064 14.6491 16.5922 14.6491C14.9569 14.6491 10.9875 8.68586 8.6353 1.86086C8.16045 0.536714 7.6966 0.00185701 6.46272 0.00185701H1.65006C0.276843 0.00185701 0 0.642571 0 1.35943C0 2.626 1.63539 8.92357 7.60493 17.2436C11.5834 22.9227 17.1863 26 22.2831 26C25.3467 26 25.7207 25.3166 25.7207 24.141C25.7207 18.7144 25.4439 18.2019 26.9784 18.2019C27.6898 18.2019 28.9145 18.5584 31.7746 21.2977C35.0435 24.5459 35.5807 26 37.4105 26H42.2213C43.5927 26 44.2875 25.3166 43.8879 23.9683C42.973 21.1324 36.7908 15.2991 36.5121 14.9091Z"/>
    </symbol>

    <symbol id="instagram" viewBox="0 0 30 31">
        <path d="M29.9238 9.11411C29.8535 7.46696 29.5956 6.33455 29.2263 5.35331C28.8453 4.31175 28.2591 3.37923 27.4912 2.60403C26.7408 1.81677 25.8323 1.20503 24.8358 0.817545C23.8805 0.435977 22.7902 0.169612 21.1958 0.0969888C19.5896 0.018215 19.0797 0 15.0058 0C10.932 0 10.4221 0.018215 8.82179 0.0908383C7.22747 0.163462 6.13138 0.430063 5.18184 0.811395C4.17345 1.20503 3.27085 1.81062 2.52051 2.60403C1.7585 3.37923 1.16661 4.3179 0.791324 5.3474C0.421993 6.33455 0.164172 7.46081 0.0938781 9.10796C0.0176307 10.7674 0 11.2942 0 15.5031C0 19.7119 0.0176307 20.2387 0.0879248 21.892C0.158219 23.5392 0.416269 24.6716 0.785599 25.6528C1.16661 26.6944 1.7585 27.6269 2.52051 28.4021C3.27085 29.1894 4.17941 29.8011 5.17589 30.1886C6.13138 30.5702 7.22151 30.8365 8.81607 30.9092C10.4161 30.982 10.9263 31 15.0001 31C19.074 31 19.5839 30.982 21.1842 30.9092C22.7785 30.8365 23.8746 30.5702 24.8241 30.1886C26.8407 29.3831 28.435 27.736 29.2146 25.6528C29.5837 24.6657 29.8418 23.5392 29.9121 21.892C29.9824 20.2387 30 19.7119 30 15.5031C30 11.2942 29.994 10.7674 29.9238 9.11411ZM27.2217 21.7709C27.1571 23.2849 26.911 24.1024 26.7058 24.6475C26.2016 25.998 25.1641 27.0698 23.8569 27.5907C23.3294 27.8027 22.5323 28.057 21.0727 28.1235C19.49 28.1963 19.0153 28.2143 15.0118 28.2143C11.0082 28.2143 10.5276 28.1963 8.9507 28.1235C7.48529 28.057 6.69397 27.8027 6.16642 27.5907C5.51591 27.3423 4.92379 26.9487 4.44318 26.434C3.94494 25.9313 3.56393 25.3257 3.32351 24.6536C3.11836 24.1086 2.87221 23.2849 2.80787 21.7771C2.73735 20.142 2.71995 19.6514 2.71995 15.5151C2.71995 11.3789 2.73735 10.8824 2.80787 9.25345C2.87221 7.73947 3.11836 6.92193 3.32351 6.3769C3.56393 5.7046 3.94494 5.0931 4.44913 4.59633C4.93547 4.08157 5.52163 3.68794 6.17237 3.43979C6.69992 3.22784 7.4972 2.97354 8.95666 2.90683C10.5393 2.8342 11.0142 2.81599 15.0175 2.81599C19.027 2.81599 19.5017 2.8342 21.0786 2.90683C22.544 2.97354 23.3353 3.22784 23.8629 3.43979C24.5134 3.68794 25.1055 4.08157 25.5861 4.59633C26.0844 5.09901 26.4654 5.7046 26.7058 6.3769C26.911 6.92193 27.1571 7.74539 27.2217 9.25345C27.292 10.8885 27.3096 11.3789 27.3096 15.5151C27.3096 19.6514 27.292 20.1358 27.2217 21.7709Z"/>
        <path d="M15.0058 7.53958C10.7504 7.53958 7.29777 11.1064 7.29777 15.5031C7.29777 19.8997 10.7504 23.4666 15.0058 23.4666C19.2615 23.4666 22.7139 19.8997 22.7139 15.5031C22.7139 11.1064 19.2615 7.53958 15.0058 7.53958ZM15.0058 20.6688C12.2451 20.6688 10.0058 18.3555 10.0058 15.5031C10.0058 12.6507 12.2451 10.3374 15.0058 10.3374C17.7668 10.3374 20.0059 12.6507 20.0059 15.5031C20.0059 18.3555 17.7668 20.6688 15.0058 20.6688Z"/>
        <path d="M24.8184 7.22472C24.8184 8.25139 24.0127 9.08383 23.0187 9.08383C22.025 9.08383 21.2192 8.25139 21.2192 7.22472C21.2192 6.19782 22.025 5.36561 23.0187 5.36561C24.0127 5.36561 24.8184 6.19782 24.8184 7.22472Z"/>
    </symbol>

    <symbol id="telegram" viewBox="0 0 33 29">
        <path d="M12.9489 19.1129L12.403 27.2097C13.1841 27.2097 13.5223 26.8559 13.928 26.4311L17.5897 22.7408L25.1771 28.6002C26.5686 29.418 27.549 28.9874 27.9244 27.2503L32.9048 2.64102L32.9062 2.63957C33.3475 0.470385 32.1623 -0.37786 30.8065 0.154287L1.53203 11.9732C-0.465892 12.791 -0.435641 13.9655 1.1924 14.4976L8.6767 16.9524L26.0612 5.48156C26.8794 4.91026 27.6233 5.22636 27.0114 5.79766L12.9489 19.1129Z"/>
    </symbol>

    <symbol id="fb" viewBox="0 0 17 18">
        <path d="M14.5098 0H2.49023C1.11723 0 0 1.18295 0 2.63672V15.3633C0 16.817 1.11723 18 2.49023 18H7.50391V11.6367H5.51172V8.47266H7.50391V6.32812C7.50391 4.58336 8.84435 3.16406 10.4922 3.16406H13.5137V6.32812H10.4922V8.47266H13.5137L13.0156 11.6367H10.4922V18H14.5098C15.8828 18 17 16.817 17 15.3633V2.63672C17 1.18295 15.8828 0 14.5098 0Z"/>
    </symbol>

    <symbol id="youtube" viewBox="0 0 25 18">
        <path d="M24.4849 2.81657C24.1968 1.7152 23.3524 0.847011 22.2815 0.550447C20.3252 0 12.4997 0 12.4997 0C12.4997 0 4.67454 0 2.71821 0.529578C1.66794 0.825828 0.802919 1.71536 0.514833 2.81657C0 4.82818 0 9 0 9C0 9 0 13.1928 0.514833 15.1834C0.803224 16.2846 1.64734 17.1528 2.71836 17.4494C4.69514 18 12.5 18 12.5 18C12.5 18 20.3252 18 22.2815 17.4704C23.3526 17.174 24.1968 16.3058 24.4852 15.2046C24.9999 13.1928 24.9999 9.02118 24.9999 9.02118C24.9999 9.02118 25.0205 4.82818 24.4849 2.81657ZM10.0083 12.8541V5.14593L16.5155 9L10.0083 12.8541Z"/>
    </symbol>


    <symbol id="heart" viewBox="0 0 22 19">
        <path d="M10.1272 3.82728L11 5.38758L11.8727 3.82731C12.1961 3.24919 12.7302 2.4848 13.5066 1.89746L12.9104 1.10947L13.5066 1.89745C14.3001 1.29708 15.1834 1 16.1562 1C18.8804 1 21 3.16135 21 6.20081C21 7.79569 20.3597 9.18257 19.0768 10.697C17.7686 12.2413 15.8767 13.8228 13.481 15.82L13.481 15.82L13.4799 15.821C12.7302 16.446 11.8833 17.152 11 17.9052C10.1173 17.1525 9.27085 16.4469 8.52184 15.8224L8.5195 15.8204L8.51947 15.8204C6.12358 13.823 4.23151 12.2414 2.92326 10.6971C1.64026 9.18256 1 7.79568 1 6.20081C1 3.16135 3.11962 1 5.84375 1C6.81664 1 7.6999 1.29708 8.49343 1.89745L9.08961 1.10947L8.49343 1.89746C9.26976 2.48481 9.80389 3.24916 10.1272 3.82728ZM11.1964 18.073C11.1968 18.0733 11.1971 18.0736 11.1975 18.0739L11.1964 18.073Z"
              stroke-width="2"/>
    </symbol>

    <symbol id="burger" viewBox="0 0 28 24">
        <path d="M0 2.4C0 1.07452 1.07452 0 2.4 0H25.6C26.9255 0 28 1.07452 28 2.4C28 3.72548 26.9255 4.8 25.6 4.8H2.4C1.07452 4.8 0 3.72548 0 2.4Z"/>
        <path d="M0 12C0 10.6745 1.07452 9.6 2.4 9.6H25.6C26.9255 9.6 28 10.6745 28 12C28 13.3255 26.9255 14.4 25.6 14.4H2.4C1.07452 14.4 0 13.3255 0 12Z"/>
        <path d="M0 21.6C0 20.2745 1.07452 19.2 2.4 19.2H25.6C26.9255 19.2 28 20.2745 28 21.6C28 22.9255 26.9255 24 25.6 24H2.4C1.07452 24 0 22.9255 0 21.6Z"/>
    </symbol>

    <symbol id="share" viewBox="0 0 24 24">
        <path d="M23 1L11.8993 12.1209L1 8.05128L23 1Z" stroke-width="2" stroke-linecap="round"
              stroke-linejoin="round"/>
        <path d="M23.0001 1L11.8994 12.1209L15.9489 23L23.0001 1Z" stroke-width="2"
              stroke-linecap="round" stroke-linejoin="round"/>
    </symbol>


    <symbol id="arrow-left" viewBox="0 0 10 17">
        <path d="M8 2L2 8.5L8 15" stroke-width="3" stroke-linecap="round" stroke-linejoin="round"/>
    </symbol>

    <symbol id="star" viewBox="0 0 12 12">
        <path d="M4.99238 0.669729C5.39055 -0.223244 6.60945 -0.223243 7.00762 0.66973L7.94294 2.76735C8.10482 3.13039 8.43536 3.38051 8.81689 3.42867L11.0214 3.70694C11.9598 3.8254 12.3365 5.03277 11.6441 5.70312L10.0177 7.27778C9.7362 7.55032 9.60995 7.95502 9.68387 8.34783L10.111 10.6174C10.2928 11.5836 9.3067 12.3298 8.48062 11.8511L6.54013 10.7267C6.20428 10.5321 5.79572 10.5321 5.45987 10.7267L3.51938 11.8511C2.6933 12.3298 1.70718 11.5836 1.88901 10.6174L2.31613 8.34783C2.39005 7.95502 2.2638 7.55032 1.98231 7.27778L0.355902 5.70311C-0.336472 5.03277 0.0401902 3.8254 0.978648 3.70694L3.18311 3.42867C3.56465 3.38051 3.89518 3.13039 4.05706 2.76735L4.99238 0.669729Z"/>
    </symbol>

    <symbol id="star-border" viewBox="0 0 14 14">
        <path d="M6.5174 0.804027C6.73069 0.398657 7.26931 0.398658 7.4826 0.804026L8.95816 3.60841C9.17742 4.02512 9.56845 4.32603 10.0313 4.41786L13.0436 5.01546C13.4562 5.09732 13.6689 5.66247 13.3411 6.02624L11.2408 8.35705C10.9262 8.70623 10.7812 9.17858 10.8379 9.64501L11.224 12.8187C11.2862 13.3302 10.8022 13.6204 10.4442 13.4443L7.67053 12.0805C7.24649 11.872 6.75351 11.872 6.32947 12.0805L3.55584 13.4443C3.19781 13.6204 2.71378 13.3302 2.776 12.8187L3.1621 9.64501C3.21885 9.17858 3.0738 8.70623 2.75915 8.35705L0.658856 6.02624C0.331068 5.66248 0.543824 5.09732 0.956445 5.01546L3.96869 4.41786C4.43154 4.32604 4.82258 4.02512 5.04183 3.60842L6.5174 0.804027Z"
              stroke="#FFA500"/>
    </symbol>

    <symbol id="plus" viewBox="0 0 8 8">
        <path d="M2.87302 8V5.10843H0V2.89157H2.87302V0H5.12698V2.89157H8V5.10843H5.12698V8H2.87302Z"/>
    </symbol>

    <symbol id="minus" viewBox="0 0 6 2">
        <path d="M0 2V0H6V2H0Z"/>
    </symbol>

    <symbol id="share-icon" viewBox="0 0 19 17">
        <path d="M18.3173 8.49424L11.604 15.7162V11.9207V11.4207H11.104H10.6288C6.78986 11.4207 3.12332 12.9815 0.5 15.73V14.3144C0.5 9.49269 4.48682 5.56782 9.4252 5.56782H11.104H11.604V5.06782V1.27226L18.3173 8.49424Z"/>
    </symbol>

    <symbol id="like" viewBox="0 0 15 14">
        <path d="M14.221 7.41435L13.9074 7.76374L14.2364 8.0987C14.4028 8.26812 14.5 8.49872 14.5 8.75C14.5 9.11155 14.2973 9.42542 14.0001 9.57778L13.5621 9.80224L13.7796 10.2437C13.8417 10.3696 13.875 10.5097 13.875 10.6591C13.875 11.021 13.672 11.335 13.3744 11.4875L12.9363 11.7121L13.1541 12.1536C13.2463 12.3407 13.2753 12.5593 13.227 12.7824C13.1392 13.1861 12.756 13.5 12.2994 13.5H6.5625C6.29701 13.5 5.88168 13.4276 5.50001 13.2908V7.03802L5.5304 6.971L7.3304 3.00071L7.37501 2.9023V2.79426V0.729351C7.50489 0.646431 7.78242 0.5 8.12499 0.5C8.17962 0.5 8.29496 0.525897 8.45839 0.627849C8.61551 0.725864 8.78702 0.876007 8.94622 1.07117C9.267 1.46441 9.49999 1.99245 9.49999 2.54545C9.49999 3.33034 9.2172 4.34835 9.02677 4.937L8.81524 5.59089H9.5025H13.3631C13.9598 5.59089 14.4463 6.04115 14.4951 6.57814C14.5234 6.89377 14.4202 7.19253 14.221 7.41435ZM0.5 7.95453C0.5 7.34524 0.985848 6.86363 1.56249 6.86363H3.87499V13.2245C3.74047 13.2882 3.59262 13.3232 3.43749 13.3232H1.56249C0.985848 13.3232 0.5 12.8416 0.5 12.2323V7.95453Z"/>
    </symbol>

    <symbol id="dislike" viewBox="0 0 15 14">
        <path d="M14.221 6.58565L13.9074 6.23626L14.2364 5.9013C14.4028 5.73188 14.5 5.50128 14.5 5.25C14.5 4.88845 14.2973 4.57458 14.0001 4.42222L13.5621 4.19776L13.7796 3.7563C13.8417 3.63037 13.875 3.49033 13.875 3.34091C13.875 2.97902 13.672 2.66499 13.3744 2.5125L12.9363 2.28794L13.1541 1.84639C13.2463 1.65932 13.2753 1.44069 13.227 1.21763C13.1392 0.813885 12.756 0.5 12.2994 0.5H6.5625C6.29701 0.5 5.88168 0.572371 5.50001 0.709164V6.96198L5.5304 7.029L7.3304 10.9993L7.37501 11.0977V11.2057V13.2706C7.50489 13.3536 7.78242 13.5 8.12499 13.5C8.17962 13.5 8.29496 13.4741 8.45839 13.3722C8.61551 13.2741 8.78702 13.124 8.94622 12.9288C9.267 12.5356 9.49999 12.0075 9.49999 11.4546C9.49999 10.6697 9.2172 9.65165 9.02677 9.063L8.81524 8.40911H9.5025H13.3631C13.9598 8.40911 14.4463 7.95885 14.4951 7.42186C14.5234 7.10623 14.4202 6.80747 14.221 6.58565ZM0.5 6.04547C0.5 6.65476 0.985848 7.13637 1.56249 7.13637H3.87499V0.77553C3.74047 0.711777 3.59262 0.676775 3.43749 0.676775H1.56249C0.985848 0.676775 0.5 1.15839 0.5 1.76768V6.04547Z"/>
    </symbol>

    <symbol id="search" viewBox="0 0 13 13">
        <path d="M12.6922 11.1824L9.70336 8.15249C10.2112 7.33295 10.5059 6.36432 10.5059 5.32479C10.5059 2.38382 8.15397 0 5.25284 0C2.35172 0 0 2.38382 0 5.32479C0 8.26587 2.35161 10.6495 5.25284 10.6495C6.36884 10.6495 7.40253 10.2958 8.25313 9.69481L11.2063 12.6887C11.4116 12.8965 11.6806 13 11.9492 13C12.2183 13 12.4869 12.8965 12.6925 12.6887C13.1026 12.2726 13.1026 11.5985 12.6922 11.1824ZM5.25284 8.92431C3.29195 8.92431 1.70217 7.31287 1.70217 5.32501C1.70217 3.33715 3.29195 1.7256 5.25284 1.7256C7.21385 1.7256 8.80352 3.33715 8.80352 5.32501C8.80352 7.31287 7.21385 8.92431 5.25284 8.92431Z"/>
    </symbol>


</svg>